{"glyphs":{"0":{"ha":1111,"x_min":17,"x_max":1094,"o":"m 17 536 q 59 315 17 418 q 174 134 101 211 q 346 13 247 57 q 556 -32 444 -32 q 765 13 667 -32 q 937 134 864 57 q 1052 315 1010 211 q 1094 538 1094 418 q 1052 759 1094 656 q 937 940 1010 863 q 765 1061 864 1017 q 556 1106 667 1106 q 347 1063 444 1106 q 176 944 249 1021 q 60 764 103 868 q 17 536 17 660 m 147 538 q 178 709 147 629 q 265 847 210 789 q 394 940 321 906 q 554 974 468 974 q 714 940 639 974 q 845 847 789 906 q 933 709 901 789 q 965 538 965 629 q 933 365 965 446 q 845 226 901 285 q 714 132 789 167 q 554 97 639 97 q 394 132 468 97 q 265 226 321 167 q 178 365 210 285 q 147 538 147 446 z "},"1":{"ha":211,"x_min":22,"x_max":189,"o":"m 189 0 l 189 1067 l 22 1067 l 22 968 l 78 968 l 78 0 l 189 0 z "},"2":{"ha":300,"x_min":22,"x_max":278,"o":"m 278 964 l 278 849 q 260 776 278 806 q 219 722 243 747 q 172 669 196 696 q 133 603 147 642 l 133 99 l 167 99 l 167 604 l 278 604 l 278 0 l 22 0 l 22 597 q 40 677 22 644 q 82 737 58 710 q 130 790 106 764 q 167 850 154 817 l 167 946 q 161 967 167 960 q 150 974 156 974 q 133 946 133 971 l 133 849 l 22 849 l 22 963 q 34 1012 22 992 q 65 1045 46 1032 q 106 1064 83 1058 q 149 1069 128 1069 q 192 1063 169 1069 q 233 1044 214 1057 q 265 1012 253 1032 q 278 964 278 992 z "},"3":{"ha":301,"x_min":22,"x_max":278,"o":"m 154 676 q 167 651 167 669 l 167 124 q 151 97 167 100 l 150 97 q 139 106 144 99 q 133 124 133 113 l 133 604 l 22 604 l 22 106 q 34 56 22 76 q 65 22 46 35 q 106 3 83 10 q 150 -3 129 -3 l 151 -3 q 194 3 172 -3 q 235 22 217 10 q 266 56 254 35 q 278 106 278 76 l 278 571 q 276 628 278 604 q 267 669 274 651 q 248 701 260 688 q 217 725 236 714 q 248 751 236 738 q 267 781 260 764 q 276 822 274 799 q 278 879 278 846 l 278 961 q 266 1011 278 990 q 235 1044 254 1032 q 194 1063 217 1057 q 151 1069 172 1069 l 150 1069 q 106 1063 129 1069 q 65 1044 83 1057 q 34 1011 46 1032 q 22 961 22 990 l 22 849 l 133 849 l 133 943 q 139 961 133 954 q 150 969 144 968 l 151 969 q 167 943 167 967 l 167 801 q 154 775 167 776 l 31 775 l 31 676 l 154 676 z "},"4":{"ha":303,"x_min":22,"x_max":279,"o":"m 22 1067 l 22 676 l 168 676 l 168 0 l 279 0 l 279 1067 l 168 1067 l 168 775 l 133 775 l 133 1067 l 22 1067 z "},"5":{"ha":300,"x_min":22,"x_max":278,"o":"m 22 806 l 22 1067 l 278 1067 l 278 849 l 167 849 l 167 968 l 133 968 l 133 850 l 278 650 l 278 103 q 266 53 278 74 q 235 21 254 33 q 194 3 217 8 q 151 -3 172 -3 q 108 3 131 -3 q 67 21 86 8 q 35 53 47 33 q 22 101 22 74 l 22 604 l 133 604 l 133 119 q 139 99 133 106 q 150 92 144 92 q 167 119 167 93 l 167 603 l 22 806 z "},"6":{"ha":303,"x_min":22,"x_max":279,"o":"m 22 965 q 35 1013 22 993 q 67 1046 47 1033 q 109 1064 86 1058 q 153 1069 132 1069 q 196 1064 174 1069 q 237 1046 218 1058 q 267 1013 256 1033 q 279 964 279 993 l 279 889 l 168 889 l 168 944 q 151 972 168 969 q 140 965 146 972 q 133 944 133 958 l 133 775 l 150 775 q 194 769 171 775 q 235 751 217 764 q 267 719 254 739 q 279 671 279 699 l 279 103 q 267 53 279 74 q 237 21 256 33 q 196 3 218 8 q 153 -3 174 -3 q 109 3 132 -3 q 67 21 86 8 q 35 53 47 33 q 22 101 22 74 l 22 965 m 168 651 q 150 678 168 678 q 133 654 136 678 l 133 122 q 140 101 133 108 q 151 94 146 94 q 168 122 168 96 l 168 651 z "},"7":{"ha":257,"x_min":22,"x_max":233,"o":"m 133 0 l 233 968 l 233 1067 l 22 1067 l 22 968 l 124 968 l 25 0 l 133 0 z "},"8":{"ha":301,"x_min":22,"x_max":278,"o":"m 151 1069 q 194 1063 172 1069 q 235 1044 217 1057 q 266 1011 254 1032 q 278 961 278 990 l 278 879 q 276 822 278 846 q 267 781 274 799 q 248 751 260 764 q 217 725 236 738 q 248 701 236 714 q 267 669 260 688 q 276 628 274 651 q 278 571 278 604 l 278 106 q 266 56 278 76 q 235 22 254 35 q 194 3 217 10 q 151 -3 172 -3 l 150 -3 q 106 3 129 -3 q 65 22 83 10 q 34 56 46 35 q 22 106 22 76 l 22 571 q 24 628 22 604 q 33 669 26 651 q 52 701 40 688 q 83 725 64 714 q 52 751 64 738 q 33 781 40 764 q 24 822 26 799 q 22 879 22 846 l 22 961 q 34 1011 22 990 q 65 1044 46 1032 q 106 1063 83 1057 q 150 1069 129 1069 l 151 1069 m 133 124 q 139 106 133 113 q 150 97 144 99 l 151 97 q 167 124 167 100 l 167 651 q 151 678 167 671 l 150 678 q 133 651 133 671 l 133 124 m 133 801 q 149 775 133 778 l 153 775 q 167 801 167 776 l 167 943 q 151 969 167 967 l 150 969 q 139 961 144 968 q 133 943 133 954 l 133 801 z "},"9":{"ha":303,"x_min":22,"x_max":279,"o":"m 22 965 q 35 1013 22 993 q 67 1046 47 1033 q 108 1064 86 1058 q 151 1069 131 1069 q 194 1064 172 1069 q 235 1046 217 1058 q 267 1013 254 1033 q 279 964 279 993 l 279 103 q 267 53 279 74 q 237 21 256 33 q 196 3 218 8 q 154 -3 174 -3 q 110 3 133 -3 q 68 21 88 8 q 35 53 49 33 q 22 101 22 74 l 22 601 l 133 601 l 133 119 q 140 99 133 106 q 151 92 146 92 q 168 119 168 93 l 168 678 l 150 678 q 106 683 129 678 q 65 701 83 689 q 34 734 46 714 q 22 783 22 754 l 22 965 m 150 775 l 168 775 l 168 947 q 153 975 168 972 q 140 968 146 975 q 133 947 133 961 l 133 801 q 139 783 133 790 q 150 775 144 776 z "}," ":{"ha":149,"x_min":0,"x_max":0,"o":""},"!":{"ha":157,"x_min":22,"x_max":133,"o":"m 22 68 q 40 19 22 42 q 78 -3 57 -3 q 116 19 99 -3 q 133 68 133 42 q 116 117 133 94 q 78 139 99 139 q 40 117 57 139 q 22 68 22 94 m 22 226 l 133 226 l 133 1067 l 22 1067 l 22 226 z "},"\"":{"ha":297,"x_min":22,"x_max":275,"o":"m 22 1067 l 128 1067 l 128 779 l 22 779 l 22 1067 m 169 1067 l 275 1067 l 275 779 l 169 779 l 169 1067 z "},"#":{"ha":375,"x_min":22,"x_max":353,"o":"m 22 751 l 64 751 l 64 700 l 22 700 l 22 601 l 64 601 l 64 235 l 172 235 l 172 601 l 203 601 l 203 235 l 311 235 l 311 601 l 353 601 l 353 700 l 311 700 l 311 751 l 353 751 l 353 850 l 311 850 l 311 1067 l 203 1067 l 203 850 l 172 850 l 172 1067 l 64 1067 l 64 850 l 22 850 l 22 751 m 172 751 l 203 751 l 203 700 l 172 700 l 172 751 z "},"$":{"ha":300,"x_min":22,"x_max":278,"o":"m 190 0 l 190 149 q 251 181 224 157 q 278 250 278 204 l 278 538 q 260 617 278 585 q 218 677 242 650 q 170 731 194 704 q 133 790 146 757 l 133 867 q 139 888 133 881 q 150 894 144 894 q 167 867 167 892 l 167 789 l 278 789 l 278 883 q 251 953 278 929 q 190 985 224 976 l 190 1065 l 111 1065 l 111 985 q 50 951 78 975 q 22 885 22 926 l 22 789 q 40 717 22 746 q 81 662 57 688 q 128 609 104 636 q 167 543 153 582 l 167 267 q 150 239 167 240 q 139 246 144 239 q 133 267 133 253 l 133 544 l 22 544 l 22 249 q 50 181 22 204 q 111 149 78 157 l 111 0 l 190 0 z "},"%":{"ha":642,"x_min":19,"x_max":622,"o":"m 367 0 l 367 569 q 379 617 367 597 q 411 650 392 638 q 453 668 431 663 q 496 674 475 674 q 539 668 517 674 q 580 650 561 663 q 610 617 599 638 q 622 568 622 597 l 622 1 q 610 -48 622 -28 q 580 -81 599 -68 q 539 -99 561 -93 q 496 -104 517 -104 q 453 -99 475 -104 q 411 -81 431 -93 q 379 -48 392 -68 q 367 0 367 -28 m 478 549 l 478 21 q 483 0 478 7 q 494 -7 489 -7 q 511 21 511 -6 l 511 549 q 494 576 511 574 q 483 569 489 576 q 478 549 478 563 m 19 879 l 19 1068 q 32 1116 19 1096 q 64 1149 44 1136 q 106 1167 83 1161 q 150 1172 129 1172 q 193 1167 171 1172 q 234 1149 215 1161 q 265 1116 253 1136 q 276 1067 276 1096 l 276 881 q 265 831 276 851 q 234 799 253 811 q 193 781 215 786 q 150 775 171 775 q 106 781 129 775 q 64 799 83 786 q 32 831 44 811 q 19 879 19 851 m 131 1047 l 131 900 q 149 872 131 872 q 160 881 154 874 q 165 900 165 889 l 165 1047 q 160 1066 165 1058 q 149 1075 154 1074 q 131 1047 131 1075 m 310 1067 l 421 1067 l 421 782 q 399 714 421 742 q 347 675 376 686 q 333 650 333 669 l 333 0 l 222 0 l 222 669 q 245 738 222 710 q 299 778 268 767 q 306 787 303 782 q 310 801 310 792 l 310 1067 z "},"&":{"ha":313,"x_min":22,"x_max":289,"o":"m 151 1069 q 194 1063 172 1069 q 235 1044 217 1057 q 266 1011 254 1032 q 278 961 278 990 l 278 849 l 167 849 l 167 943 q 151 969 167 967 l 150 969 q 139 961 144 968 q 133 943 133 954 l 133 801 q 147 775 133 776 l 289 775 l 289 676 l 250 676 q 268 636 258 657 q 278 579 278 615 l 278 0 l 150 0 q 106 6 129 0 q 65 24 83 11 q 34 56 46 36 q 22 106 22 76 l 22 571 q 24 628 22 604 q 33 669 26 651 q 52 701 40 688 q 83 725 64 714 q 52 751 64 738 q 33 781 40 764 q 24 822 26 799 q 22 879 22 846 l 22 961 q 34 1011 22 990 q 65 1044 46 1032 q 106 1063 83 1057 q 150 1069 129 1069 l 151 1069 m 133 125 q 139 107 133 114 q 150 99 144 100 l 167 99 l 167 651 q 151 678 167 671 l 150 678 q 133 651 133 671 l 133 125 z "},"'":{"ha":151,"x_min":22,"x_max":128,"o":"m 22 1067 l 128 1067 l 128 779 l 22 779 l 22 1067 z "},"(":{"ha":192,"x_min":22,"x_max":168,"o":"m 168 -42 l 150 -42 q 106 -36 129 -42 q 65 -18 83 -31 q 34 15 46 -6 q 22 64 22 35 l 22 1003 q 34 1052 22 1032 q 65 1085 46 1072 q 106 1103 83 1097 q 150 1108 129 1108 l 168 1108 l 168 1010 l 150 1010 q 139 1001 144 1008 q 133 983 133 994 l 133 83 q 139 65 133 72 q 150 57 144 58 l 168 57 l 168 -42 z "},")":{"ha":192,"x_min":22,"x_max":168,"o":"m 22 -42 l 42 -42 q 85 -36 63 -42 q 126 -18 107 -31 q 156 15 144 -6 q 168 64 168 35 l 168 1003 q 156 1052 168 1032 q 126 1085 144 1072 q 85 1103 107 1097 q 42 1108 63 1108 l 22 1108 l 22 1010 l 40 1010 q 57 983 57 1007 l 57 83 q 40 57 57 58 l 22 57 l 22 -42 z "},"*":{"ha":169,"x_min":17,"x_max":153,"o":"m 101 883 l 83 938 l 65 885 l 24 949 l 51 989 l 17 994 l 33 1083 l 65 1056 l 56 1111 l 115 1111 l 101 1056 l 138 1082 l 153 994 l 117 989 l 144 946 l 101 883 z "},"+":{"ha":232,"x_min":22,"x_max":210,"o":"m 22 775 l 78 775 l 78 890 l 156 890 l 156 775 l 210 775 l 210 676 l 156 676 l 156 560 l 78 560 l 78 676 l 22 676 l 22 775 z "},",":{"ha":146,"x_min":17,"x_max":128,"o":"m 17 68 q 34 117 17 94 q 72 139 51 139 q 110 117 93 139 q 128 68 128 94 q 123 35 128 56 q 109 -8 118 14 q 88 -48 100 -29 q 60 -75 75 -67 l 44 -75 q 57 -33 53 -51 q 64 -3 61 -14 q 31 21 46 0 q 17 68 17 42 z "},"-":{"ha":172,"x_min":22,"x_max":150,"o":"m 22 775 l 150 775 l 150 676 l 22 676 l 22 775 z "},".":{"ha":146,"x_min":17,"x_max":128,"o":"m 17 68 q 34 117 17 94 q 72 139 51 139 q 110 117 93 139 q 128 68 128 94 q 110 19 128 42 q 72 -3 93 -3 q 34 19 51 -3 q 17 68 17 42 z "},"/":{"ha":244,"x_min":22,"x_max":222,"o":"m 111 801 q 108 787 111 792 q 100 778 104 782 q 46 738 69 767 q 22 669 22 710 l 22 0 l 133 0 l 133 650 q 138 667 133 661 q 149 675 142 672 q 200 714 178 686 q 222 782 222 742 l 222 1067 l 111 1067 l 111 801 z "},":":{"ha":146,"x_min":17,"x_max":128,"o":"m 17 68 q 34 117 17 94 q 72 139 51 139 q 110 117 93 139 q 128 68 128 94 q 110 19 128 42 q 72 -3 93 -3 q 34 19 51 -3 q 17 68 17 42 m 17 728 q 34 776 17 754 q 72 799 51 799 q 110 776 93 799 q 128 728 128 754 q 110 679 128 701 q 72 657 93 657 q 34 679 51 657 q 17 728 17 701 z "},";":{"ha":146,"x_min":17,"x_max":128,"o":"m 17 728 q 34 776 17 754 q 72 799 51 799 q 110 776 93 799 q 128 728 128 754 q 110 679 128 701 q 72 657 93 657 q 34 679 51 657 q 17 728 17 701 m 17 68 q 34 117 17 94 q 72 139 51 139 q 110 117 93 139 q 128 68 128 94 q 123 35 128 56 q 109 -8 118 14 q 88 -48 100 -29 q 60 -75 75 -67 l 44 -75 q 57 -33 53 -51 q 64 -3 61 -14 q 31 21 46 0 q 17 68 17 42 z "},"<":{"ha":154,"x_min":22,"x_max":132,"o":"m 132 753 l 83 724 l 132 696 l 132 578 l 22 639 l 22 810 l 132 871 l 132 753 z "},"=":{"ha":185,"x_min":22,"x_max":161,"o":"m 22 700 l 161 700 l 161 601 l 22 601 l 22 700 m 22 850 l 161 850 l 161 751 l 22 751 l 22 850 z "},">":{"ha":154,"x_min":22,"x_max":132,"o":"m 22 753 l 71 724 l 22 696 l 22 578 l 132 639 l 132 810 l 22 871 l 22 753 z "},"?":{"ha":300,"x_min":22,"x_max":278,"o":"m 278 964 q 265 1012 278 992 q 233 1044 253 1032 q 192 1063 214 1057 q 149 1069 169 1069 q 106 1064 128 1069 q 65 1045 83 1058 q 34 1012 46 1032 q 22 963 22 992 l 22 849 l 133 849 l 133 946 q 150 974 133 971 q 161 967 156 974 q 167 946 167 960 l 167 847 q 133 787 154 814 q 92 731 113 760 q 56 667 71 701 q 42 586 42 633 l 42 228 l 153 228 l 153 606 q 188 673 167 644 q 228 728 208 701 q 263 786 249 756 q 278 860 278 817 l 278 964 m 43 68 q 60 19 43 42 q 99 -3 78 -3 q 137 19 119 -3 q 154 68 154 42 q 137 117 154 94 q 99 139 119 139 q 60 117 78 139 q 43 68 43 94 z "},"@":{"ha":481,"x_min":21,"x_max":456,"o":"m 414 57 l 122 57 q 114 65 118 58 q 110 83 110 72 l 110 983 q 114 1001 110 994 q 122 1010 118 1008 l 354 1010 q 367 983 367 1007 l 367 356 q 354 329 367 331 l 340 329 l 340 860 q 331 909 340 889 q 306 942 321 929 q 274 960 292 954 q 239 965 256 965 q 204 960 222 965 q 171 942 186 954 q 146 909 156 929 q 136 861 136 889 l 136 335 q 146 287 136 307 q 171 254 156 267 q 204 236 186 242 q 239 231 222 231 l 356 231 q 390 236 372 231 q 422 254 407 242 q 446 287 436 267 q 456 336 456 307 l 456 1003 q 446 1052 456 1032 q 422 1085 436 1072 q 390 1103 407 1097 q 356 1108 372 1108 l 122 1108 q 88 1103 106 1108 q 55 1085 69 1097 q 31 1052 40 1072 q 21 1003 21 1032 l 21 64 q 31 15 21 35 q 55 -18 40 -6 q 88 -36 69 -31 q 122 -42 106 -42 l 414 -42 l 414 57 m 225 840 q 230 861 225 854 q 239 868 235 868 q 247 859 243 867 q 251 840 251 851 l 251 329 l 239 329 q 230 336 235 329 q 225 357 225 343 l 225 840 z "},"A":{"ha":303,"x_min":22,"x_max":279,"o":"m 279 0 l 168 0 l 168 676 l 133 676 l 133 0 l 22 0 l 22 961 q 34 1010 22 990 q 65 1043 46 1031 q 106 1061 83 1056 q 150 1067 129 1067 l 279 1067 l 279 0 m 168 968 l 150 968 q 139 960 144 967 q 133 942 133 953 l 133 775 l 168 775 l 168 968 z "},"B":{"ha":303,"x_min":22,"x_max":279,"o":"m 22 1067 l 153 1067 q 196 1061 174 1067 q 237 1043 218 1056 q 267 1010 256 1031 q 279 961 279 990 l 279 879 q 277 822 279 846 q 268 781 275 799 q 249 751 261 764 q 218 725 238 738 q 249 701 238 714 q 268 669 261 688 q 277 628 275 651 q 279 571 279 604 l 279 106 q 267 56 279 76 q 237 24 256 36 q 196 6 218 11 q 153 0 174 0 l 22 0 l 22 1067 m 133 678 l 133 99 l 151 99 q 168 125 168 100 l 168 651 q 153 678 168 671 l 133 678 m 133 775 l 153 775 q 168 801 168 778 l 168 942 q 151 968 168 965 l 133 968 l 133 775 z "},"C":{"ha":244,"x_min":22,"x_max":222,"o":"m 222 0 l 150 0 q 106 6 129 0 q 65 24 83 11 q 34 56 46 36 q 22 106 22 76 l 22 961 q 34 1010 22 990 q 65 1043 46 1031 q 106 1061 83 1056 q 150 1067 129 1067 l 222 1067 l 222 968 l 150 968 q 139 960 144 967 q 133 942 133 953 l 133 125 q 139 107 133 114 q 150 99 144 100 l 222 99 l 222 0 z "},"D":{"ha":303,"x_min":22,"x_max":279,"o":"m 22 0 l 22 1067 l 153 1067 q 196 1061 174 1067 q 237 1043 218 1056 q 267 1010 256 1031 q 279 961 279 990 l 279 106 q 267 56 279 76 q 237 24 256 36 q 196 6 218 11 q 153 0 174 0 l 22 0 m 133 968 l 133 99 l 151 99 q 168 125 168 100 l 168 942 q 151 968 168 965 l 133 968 z "},"E":{"ha":301,"x_min":22,"x_max":278,"o":"m 271 676 l 271 775 l 133 775 l 133 968 l 167 968 l 167 849 l 278 849 l 278 1067 l 22 1067 l 22 0 l 278 0 l 278 604 l 167 604 l 167 99 l 133 99 l 133 676 l 271 676 z "},"F":{"ha":301,"x_min":22,"x_max":278,"o":"m 271 676 l 271 775 l 133 775 l 133 968 l 167 968 l 167 849 l 278 849 l 278 1067 l 22 1067 l 22 0 l 133 0 l 133 676 l 271 676 z "},"G":{"ha":303,"x_min":22,"x_max":279,"o":"m 22 965 q 35 1013 22 993 q 67 1046 47 1033 q 109 1064 86 1058 q 153 1069 132 1069 q 196 1064 174 1069 q 237 1046 218 1058 q 267 1013 256 1033 q 279 964 279 993 l 279 889 l 168 889 l 168 944 q 151 972 168 969 q 140 965 146 972 q 133 944 133 958 l 133 122 q 140 101 133 108 q 151 94 146 94 q 168 122 168 96 l 168 775 l 279 775 l 279 103 q 267 53 279 74 q 237 21 256 33 q 196 3 218 8 q 153 -3 174 -3 q 109 3 132 -3 q 67 21 86 8 q 35 53 47 33 q 22 101 22 74 l 22 965 z "},"H":{"ha":303,"x_min":22,"x_max":279,"o":"m 22 0 l 133 0 l 133 676 l 168 676 l 168 0 l 279 0 l 279 1067 l 168 1067 l 168 775 l 133 775 l 133 1067 l 22 1067 l 22 0 z "},"I":{"ha":258,"x_min":22,"x_max":236,"o":"m 185 99 l 185 968 l 236 968 l 236 1067 l 22 1067 l 22 968 l 74 968 l 74 99 l 22 99 l 22 0 l 236 0 l 236 99 l 185 99 z "},"J":{"ha":303,"x_min":22,"x_max":279,"o":"m 22 101 l 22 604 l 133 604 l 133 122 q 140 101 133 108 q 151 94 146 94 q 168 122 168 96 l 168 1067 l 279 1067 l 279 103 q 267 53 279 74 q 237 21 256 33 q 196 3 218 8 q 153 -3 174 -3 q 109 3 132 -3 q 67 21 86 8 q 35 53 47 33 q 22 101 22 74 z "},"K":{"ha":303,"x_min":22,"x_max":279,"o":"m 133 775 l 153 775 q 168 801 168 778 l 168 1067 l 279 1067 l 279 879 q 277 822 279 846 q 268 781 275 799 q 249 751 261 764 q 218 725 238 738 q 249 701 238 714 q 268 669 261 688 q 277 628 275 651 q 279 571 279 604 l 279 0 l 168 0 l 168 651 q 153 678 168 671 l 133 678 l 133 0 l 22 0 l 22 1067 l 133 1067 l 133 775 z "},"L":{"ha":300,"x_min":22,"x_max":278,"o":"m 22 0 l 22 1067 l 133 1067 l 133 99 l 167 99 l 167 604 l 278 604 l 278 0 l 22 0 z "},"M":{"ha":446,"x_min":22,"x_max":422,"o":"m 22 965 l 22 0 l 133 0 l 133 944 q 140 965 133 958 q 151 972 146 972 q 168 944 168 969 l 168 0 l 278 0 l 278 944 q 283 965 278 958 q 294 972 289 972 q 311 944 311 969 l 311 0 l 422 0 l 422 964 q 410 1013 422 993 q 380 1046 399 1033 q 339 1064 361 1058 q 296 1069 317 1069 q 258 1060 278 1069 q 224 1032 239 1051 q 191 1060 211 1051 q 153 1069 171 1069 q 109 1064 132 1069 q 67 1046 86 1058 q 35 1013 47 1033 q 22 965 22 993 z "},"N":{"ha":303,"x_min":22,"x_max":279,"o":"m 22 0 l 22 1067 l 153 1067 q 196 1061 174 1067 q 237 1043 218 1056 q 267 1010 256 1031 q 279 961 279 990 l 279 0 l 168 0 l 168 942 q 151 968 168 965 l 133 968 l 133 0 l 22 0 z "},"O":{"ha":303,"x_min":22,"x_max":279,"o":"m 22 101 l 22 965 q 35 1013 22 993 q 67 1046 47 1033 q 109 1064 86 1058 q 153 1069 132 1069 q 196 1064 174 1069 q 237 1046 218 1058 q 267 1013 256 1033 q 279 964 279 993 l 279 103 q 267 53 279 74 q 237 21 256 33 q 196 3 218 8 q 153 -3 174 -3 q 109 3 132 -3 q 67 21 86 8 q 35 53 47 33 q 22 101 22 74 m 133 944 l 133 122 q 140 101 133 108 q 151 94 146 94 q 168 122 168 96 l 168 944 q 151 972 168 969 q 140 965 146 972 q 133 944 133 958 z "},"P":{"ha":303,"x_min":22,"x_max":279,"o":"m 22 0 l 22 1067 l 153 1067 q 196 1061 174 1067 q 237 1043 218 1056 q 267 1010 256 1031 q 279 961 279 990 l 279 783 q 267 734 279 754 q 237 701 256 714 q 196 683 218 689 q 153 678 174 678 l 133 678 l 133 0 l 22 0 m 133 775 l 151 775 q 168 801 168 776 l 168 942 q 151 968 168 965 l 133 968 l 133 775 z "},"Q":{"ha":303,"x_min":22,"x_max":279,"o":"m 22 101 q 31 60 22 78 q 54 31 40 43 q 86 10 68 18 q 122 0 104 3 q 133 -25 133 0 l 133 -128 l 243 -128 l 243 -4 q 236 21 243 14 q 267 53 256 33 q 279 103 279 74 l 279 964 q 267 1013 279 993 q 237 1046 256 1033 q 196 1064 218 1058 q 153 1069 174 1069 q 109 1064 132 1069 q 67 1046 86 1058 q 35 1013 47 1033 q 22 965 22 993 l 22 101 m 133 944 q 140 965 133 958 q 151 972 146 972 q 168 944 168 969 l 168 122 q 151 94 168 96 q 140 101 146 94 q 133 122 133 108 l 133 944 z "},"R":{"ha":303,"x_min":22,"x_max":279,"o":"m 133 678 l 133 0 l 22 0 l 22 1067 l 153 1067 q 196 1061 174 1067 q 237 1043 218 1056 q 267 1010 256 1031 q 279 961 279 990 l 279 879 q 277 822 279 846 q 268 781 275 799 q 249 751 261 764 q 218 725 238 738 q 249 701 238 714 q 268 669 261 688 q 277 628 275 651 q 279 571 279 604 l 279 0 l 168 0 l 168 651 q 153 678 168 671 l 133 678 m 133 775 l 153 775 q 168 801 168 778 l 168 942 q 151 968 168 965 l 133 968 l 133 775 z "},"S":{"ha":244,"x_min":22,"x_max":222,"o":"m 133 801 q 137 787 133 792 q 144 778 140 782 q 199 738 175 767 q 222 669 222 710 l 222 106 q 210 56 222 76 q 178 24 197 36 q 138 6 160 11 q 94 0 115 0 l 22 0 l 22 99 l 94 99 q 106 107 100 100 q 111 125 111 114 l 111 650 q 107 667 111 661 q 96 675 103 672 q 44 714 67 686 q 22 782 22 742 l 22 961 q 34 1010 22 990 q 65 1043 46 1031 q 106 1061 83 1056 q 150 1067 129 1067 l 222 1067 l 222 968 l 150 968 q 139 960 144 967 q 133 942 133 953 l 133 801 z "},"T":{"ha":286,"x_min":22,"x_max":264,"o":"m 233 0 l 214 0 q 171 6 193 0 q 130 24 149 11 q 99 56 111 36 q 88 106 88 76 l 88 968 l 22 968 l 22 1067 l 264 1067 l 264 968 l 199 968 l 199 125 q 215 99 199 100 l 233 99 l 233 0 z "},"U":{"ha":303,"x_min":22,"x_max":279,"o":"m 279 0 l 150 0 q 106 6 129 0 q 65 24 83 11 q 34 56 46 36 q 22 106 22 76 l 22 1067 l 133 1067 l 133 125 q 139 107 133 114 q 150 99 144 100 l 168 99 l 168 1067 l 279 1067 l 279 0 z "},"V":{"ha":303,"x_min":22,"x_max":279,"o":"m 22 676 l 133 0 l 168 0 l 279 675 l 279 1067 l 171 1067 l 171 676 l 150 472 l 132 676 l 132 1067 l 22 1067 l 22 676 z "},"W":{"ha":446,"x_min":22,"x_max":422,"o":"m 22 101 l 22 1067 l 133 1067 l 133 122 q 140 101 133 108 q 151 94 146 94 q 168 122 168 96 l 168 1067 l 278 1067 l 278 122 q 283 102 278 108 q 294 96 289 96 l 311 96 l 311 1067 l 422 1067 l 422 -1 l 296 -1 q 258 7 278 -1 q 224 35 239 15 q 191 6 211 15 q 153 -3 171 -3 q 109 3 132 -3 q 67 21 86 8 q 35 53 47 33 q 22 101 22 74 z "},"X":{"ha":303,"x_min":22,"x_max":279,"o":"m 154 775 q 168 801 168 776 l 168 1067 l 279 1067 l 279 879 q 277 822 279 846 q 268 781 275 799 q 249 751 261 764 q 218 725 238 738 q 249 701 238 714 q 268 669 261 688 q 277 628 275 651 q 279 571 279 604 l 279 0 l 168 0 l 168 651 q 153 678 168 671 l 150 678 q 133 651 133 671 l 133 0 l 22 0 l 22 571 q 24 628 22 604 q 33 669 26 651 q 52 701 40 688 q 83 725 64 714 q 52 751 64 738 q 33 781 40 764 q 24 822 26 799 q 22 879 22 846 l 22 1067 l 133 1067 l 133 801 q 149 775 133 778 l 154 775 z "},"Y":{"ha":303,"x_min":22,"x_max":279,"o":"m 22 779 q 44 719 22 742 q 94 685 65 696 l 94 0 l 206 0 l 206 683 q 257 717 235 694 q 279 781 279 740 l 279 1067 l 168 1067 l 168 800 q 151 772 168 774 q 140 779 146 772 q 133 800 133 786 l 133 1067 l 22 1067 l 22 779 z "},"Z":{"ha":300,"x_min":22,"x_max":278,"o":"m 22 0 l 22 650 l 167 850 l 167 968 l 133 968 l 133 849 l 22 849 l 22 1067 l 278 1067 l 278 806 l 133 603 l 133 99 l 167 99 l 167 604 l 278 604 l 278 0 l 22 0 z "},"[":{"ha":192,"x_min":22,"x_max":168,"o":"m 168 -42 l 22 -42 l 22 1108 l 168 1108 l 168 1010 l 133 1010 l 133 57 l 168 57 l 168 -42 z "},"\\":{"ha":244,"x_min":22,"x_max":222,"o":"m 133 801 q 137 787 133 792 q 144 778 140 782 q 199 738 175 767 q 222 669 222 710 l 222 0 l 111 0 l 111 650 q 107 667 111 661 q 96 675 103 672 q 44 714 67 686 q 22 782 22 742 l 22 1067 l 133 1067 l 133 801 z "},"]":{"ha":192,"x_min":22,"x_max":168,"o":"m 22 -42 l 168 -42 l 168 1108 l 22 1108 l 22 1010 l 57 1010 l 57 57 l 22 57 l 22 -42 z "},"^":{"ha":303,"x_min":22,"x_max":279,"o":"m 22 0 l 133 0 l 133 676 l 168 676 l 168 0 l 279 0 l 279 961 q 267 1010 279 990 q 237 1043 256 1031 q 196 1061 218 1056 q 153 1067 174 1067 l 22 1067 l 22 0 m 133 968 l 151 968 q 168 942 168 965 l 168 775 l 133 775 l 133 968 z "},"_":{"ha":219,"x_min":22,"x_max":197,"o":"m 22 99 l 22 0 l 197 0 l 197 99 l 22 99 z "},"`":{"ha":131,"x_min":-33,"x_max":114,"o":"m 114 1113 l 18 1113 l -33 1249 l 65 1249 l 114 1113 z "},"a":{"ha":303,"x_min":22,"x_max":279,"o":"m 22 965 q 35 1013 22 993 q 67 1046 47 1033 q 109 1064 86 1058 q 153 1069 132 1069 q 196 1064 174 1069 q 237 1046 218 1058 q 267 1013 256 1033 q 279 964 279 993 l 279 0 l 168 0 l 168 676 l 133 676 l 133 0 l 22 0 l 22 965 m 133 944 l 133 775 l 168 775 l 168 944 q 151 972 168 969 q 140 965 146 972 q 133 944 133 958 z "},"b":{"ha":303,"x_min":22,"x_max":279,"o":"m 22 1067 l 153 1067 q 196 1061 174 1067 q 237 1043 218 1056 q 267 1010 256 1031 q 279 961 279 990 l 279 879 q 277 822 279 846 q 268 781 275 799 q 249 751 261 764 q 218 725 238 738 q 249 701 238 714 q 268 669 261 688 q 277 628 275 651 q 279 571 279 604 l 279 106 q 267 56 279 76 q 237 24 256 36 q 196 6 218 11 q 153 0 174 0 l 22 0 l 22 1067 m 133 678 l 133 99 l 151 99 q 168 125 168 100 l 168 651 q 153 678 168 671 l 133 678 m 133 775 l 153 775 q 168 801 168 778 l 168 942 q 151 968 168 965 l 133 968 l 133 775 z "},"c":{"ha":303,"x_min":22,"x_max":279,"o":"m 22 965 q 35 1013 22 993 q 67 1046 47 1033 q 109 1064 86 1058 q 153 1069 132 1069 q 196 1064 174 1069 q 237 1046 218 1058 q 267 1013 256 1033 q 279 964 279 993 l 279 679 l 168 679 l 168 944 q 151 972 168 969 q 140 965 146 972 q 133 944 133 958 l 133 122 q 140 101 133 108 q 151 94 146 94 q 168 122 168 96 l 168 476 l 279 476 l 279 103 q 267 53 279 74 q 237 21 256 33 q 196 3 218 8 q 153 -3 174 -3 q 109 3 132 -3 q 67 21 86 8 q 35 53 47 33 q 22 101 22 74 l 22 965 z "},"d":{"ha":303,"x_min":22,"x_max":279,"o":"m 22 0 l 22 1067 l 153 1067 q 196 1061 174 1067 q 237 1043 218 1056 q 267 1010 256 1031 q 279 961 279 990 l 279 106 q 267 56 279 76 q 237 24 256 36 q 196 6 218 11 q 153 0 174 0 l 22 0 m 133 968 l 133 99 l 151 99 q 168 125 168 100 l 168 942 q 151 968 168 965 l 133 968 z "},"e":{"ha":244,"x_min":22,"x_max":222,"o":"m 22 0 l 22 1067 l 222 1067 l 222 968 l 133 968 l 133 775 l 215 775 l 215 676 l 133 676 l 133 99 l 222 99 l 222 0 l 22 0 z "},"f":{"ha":244,"x_min":22,"x_max":222,"o":"m 22 0 l 22 1067 l 222 1067 l 222 968 l 133 968 l 133 775 l 215 775 l 215 676 l 133 676 l 133 0 l 22 0 z "},"g":{"ha":303,"x_min":22,"x_max":279,"o":"m 22 965 q 35 1013 22 993 q 67 1046 47 1033 q 109 1064 86 1058 q 153 1069 132 1069 q 196 1064 174 1069 q 237 1046 218 1058 q 267 1013 256 1033 q 279 964 279 993 l 279 889 l 168 889 l 168 944 q 151 972 168 969 q 140 965 146 972 q 133 944 133 958 l 133 122 q 140 103 133 108 q 151 99 146 99 l 168 99 l 168 775 l 279 775 l 279 0 l 153 0 q 109 6 132 0 q 67 23 86 11 q 35 54 47 35 q 22 101 22 74 l 22 965 z "},"h":{"ha":303,"x_min":22,"x_max":279,"o":"m 22 0 l 133 0 l 133 676 l 168 676 l 168 0 l 279 0 l 279 1067 l 168 1067 l 168 775 l 133 775 l 133 1067 l 22 1067 l 22 0 z "},"i":{"ha":157,"x_min":22,"x_max":133,"o":"m 22 0 l 133 0 l 133 1067 l 22 1067 l 22 0 z "},"j":{"ha":244,"x_min":22,"x_max":222,"o":"m 22 0 l 94 0 q 138 6 115 0 q 178 24 160 11 q 210 56 197 36 q 222 106 222 76 l 222 1067 l 111 1067 l 111 125 q 106 107 111 114 q 94 99 100 100 l 22 99 l 22 0 z "},"k":{"ha":303,"x_min":22,"x_max":279,"o":"m 133 775 l 153 775 q 168 801 168 778 l 168 1067 l 279 1067 l 279 879 q 277 822 279 846 q 268 781 275 799 q 249 751 261 764 q 218 725 238 738 q 249 701 238 714 q 268 669 261 688 q 277 628 275 651 q 279 571 279 604 l 279 0 l 168 0 l 168 651 q 153 678 168 671 l 133 678 l 133 0 l 22 0 l 22 1067 l 133 1067 l 133 775 z "},"l":{"ha":244,"x_min":22,"x_max":222,"o":"m 22 1067 l 22 0 l 222 0 l 222 99 l 133 99 l 133 1067 l 22 1067 z "},"m":{"ha":375,"x_min":22,"x_max":351,"o":"m 22 0 l 114 0 l 114 485 l 168 0 l 206 0 l 261 485 l 261 0 l 351 0 l 351 1067 l 239 1067 l 188 594 l 136 1067 l 22 1067 l 22 0 z "},"n":{"ha":303,"x_min":22,"x_max":279,"o":"m 22 0 l 114 0 l 114 488 l 174 0 l 279 0 l 279 1067 l 189 1067 l 189 581 l 129 1067 l 22 1067 l 22 0 z "},"o":{"ha":303,"x_min":22,"x_max":279,"o":"m 22 101 l 22 965 q 35 1013 22 993 q 67 1046 47 1033 q 109 1064 86 1058 q 153 1069 132 1069 q 196 1064 174 1069 q 237 1046 218 1058 q 267 1013 256 1033 q 279 964 279 993 l 279 103 q 267 53 279 74 q 237 21 256 33 q 196 3 218 8 q 153 -3 174 -3 q 109 3 132 -3 q 67 21 86 8 q 35 53 47 33 q 22 101 22 74 m 133 944 l 133 122 q 140 101 133 108 q 151 94 146 94 q 168 122 168 96 l 168 944 q 151 972 168 969 q 140 965 146 972 q 133 944 133 958 z "},"p":{"ha":303,"x_min":22,"x_max":279,"o":"m 22 0 l 22 1067 l 153 1067 q 196 1061 174 1067 q 237 1043 218 1056 q 267 1010 256 1031 q 279 961 279 990 l 279 783 q 267 734 279 754 q 237 701 256 714 q 196 683 218 689 q 153 678 174 678 l 133 678 l 133 0 l 22 0 m 133 775 l 151 775 q 168 801 168 776 l 168 942 q 151 968 168 965 l 133 968 l 133 775 z "},"q":{"ha":303,"x_min":22,"x_max":279,"o":"m 22 101 q 31 60 22 78 q 54 31 40 43 q 86 10 68 18 q 122 0 104 3 q 133 -25 133 0 l 133 -128 l 243 -128 l 243 -4 q 236 21 243 14 q 267 53 256 33 q 279 103 279 74 l 279 964 q 267 1013 279 993 q 237 1046 256 1033 q 196 1064 218 1058 q 153 1069 174 1069 q 109 1064 132 1069 q 67 1046 86 1058 q 35 1013 47 1033 q 22 965 22 993 l 22 101 m 133 944 q 140 965 133 958 q 151 972 146 972 q 168 944 168 969 l 168 122 q 151 94 168 96 q 140 101 146 94 q 133 122 133 108 l 133 944 z "},"r":{"ha":303,"x_min":22,"x_max":279,"o":"m 133 678 l 133 0 l 22 0 l 22 1067 l 153 1067 q 196 1061 174 1067 q 237 1043 218 1056 q 267 1010 256 1031 q 279 961 279 990 l 279 879 q 277 822 279 846 q 268 781 275 799 q 249 751 261 764 q 218 725 238 738 q 249 701 238 714 q 268 669 261 688 q 277 628 275 651 q 279 571 279 604 l 279 0 l 168 0 l 168 651 q 153 678 168 671 l 133 678 m 133 775 l 153 775 q 168 801 168 778 l 168 942 q 151 968 168 965 l 133 968 l 133 775 z "},"s":{"ha":300,"x_min":22,"x_max":278,"o":"m 22 964 q 35 1012 22 992 q 67 1044 47 1032 q 108 1063 86 1057 q 151 1069 131 1069 q 194 1064 172 1069 q 235 1045 217 1058 q 266 1012 254 1032 q 278 963 278 992 l 278 849 l 167 849 l 167 946 q 150 974 167 971 q 139 967 144 974 q 133 946 133 960 l 133 850 q 170 790 146 817 q 218 737 194 764 q 260 677 242 710 q 278 597 278 644 l 278 103 q 265 53 278 74 q 234 21 253 33 q 193 3 215 8 q 150 -3 171 -3 q 107 3 129 -3 q 66 21 85 8 q 35 53 47 33 q 22 101 22 74 l 22 604 l 133 604 l 133 119 q 139 99 133 106 q 150 92 144 92 q 167 119 167 93 l 167 603 q 128 669 153 642 q 81 722 104 696 q 40 776 57 747 q 22 849 22 806 l 22 964 z "},"t":{"ha":286,"x_min":22,"x_max":264,"o":"m 199 0 l 88 0 l 88 968 l 22 968 l 22 1067 l 264 1067 l 264 968 l 199 968 l 199 0 z "},"u":{"ha":303,"x_min":22,"x_max":279,"o":"m 22 101 l 22 1067 l 133 1067 l 133 122 q 140 101 133 108 q 151 94 146 94 q 168 122 168 96 l 168 1067 l 279 1067 l 279 103 q 267 53 279 74 q 237 21 256 33 q 196 3 218 8 q 153 -3 174 -3 q 109 3 132 -3 q 67 21 86 8 q 35 53 47 33 q 22 101 22 74 z "},"v":{"ha":303,"x_min":22,"x_max":279,"o":"m 22 588 l 133 0 l 168 0 l 279 586 l 279 1067 l 171 1067 l 171 588 l 150 442 l 132 588 l 132 1067 l 22 1067 l 22 588 z "},"w":{"ha":446,"x_min":22,"x_max":422,"o":"m 22 101 l 22 1067 l 133 1067 l 133 122 q 140 101 133 108 q 151 94 146 94 q 168 122 168 96 l 168 1067 l 278 1067 l 278 122 q 283 101 278 108 q 294 94 289 94 q 311 122 311 96 l 311 1067 l 422 1067 l 422 103 q 410 53 422 74 q 380 21 399 33 q 339 3 361 8 q 296 -3 317 -3 q 258 6 278 -3 q 224 35 239 15 q 191 6 211 15 q 153 -3 171 -3 q 109 3 132 -3 q 67 21 86 8 q 35 53 47 33 q 22 101 22 74 z "},"x":{"ha":303,"x_min":22,"x_max":279,"o":"m 154 775 q 168 801 168 776 l 168 1067 l 279 1067 l 279 879 q 277 822 279 846 q 268 781 275 799 q 249 751 261 764 q 218 725 238 738 q 249 701 238 714 q 268 669 261 688 q 277 628 275 651 q 279 571 279 604 l 279 0 l 168 0 l 168 651 q 153 678 168 671 l 150 678 q 133 651 133 671 l 133 0 l 22 0 l 22 571 q 24 628 22 604 q 33 669 26 651 q 52 701 40 688 q 83 725 64 714 q 52 751 64 738 q 33 781 40 764 q 24 822 26 799 q 22 879 22 846 l 22 1067 l 133 1067 l 133 801 q 149 775 133 778 l 154 775 z "},"y":{"ha":303,"x_min":22,"x_max":279,"o":"m 168 775 l 150 775 q 139 783 144 776 q 133 801 133 790 l 133 1067 l 22 1067 l 22 783 q 34 734 22 754 q 65 701 46 714 q 106 683 83 689 q 150 678 129 678 l 168 678 l 168 119 q 151 92 168 93 q 140 99 146 92 q 133 119 133 106 l 133 601 l 22 601 l 22 101 q 35 53 22 74 q 68 21 49 33 q 110 3 88 8 q 154 -3 133 -3 q 196 3 174 -3 q 237 21 218 8 q 267 53 256 33 q 279 103 279 74 l 279 1067 l 168 1067 l 168 775 z "},"z":{"ha":257,"x_min":22,"x_max":233,"o":"m 132 99 l 233 968 l 233 1067 l 22 1067 l 22 968 l 124 968 l 22 99 l 22 0 l 233 0 l 233 99 l 132 99 z "},"{":{"ha":1058,"x_min":17,"x_max":1042,"o":"m 17 536 q 59 315 17 418 q 174 134 101 211 q 346 13 247 57 q 556 -32 444 -32 q 702 -10 632 -32 q 833 50 772 11 q 944 143 894 89 q 1028 264 993 197 l 914 332 q 851 236 889 279 q 767 162 814 193 q 667 114 721 131 q 554 97 613 97 q 394 132 468 97 q 265 226 321 167 q 178 365 210 285 q 147 538 147 446 q 178 709 147 629 q 265 847 210 789 q 394 940 321 906 q 554 974 468 974 q 674 953 617 974 q 781 899 732 933 q 867 816 829 864 q 928 713 904 768 l 1042 782 q 960 913 1010 854 q 847 1015 910 972 q 709 1082 783 1058 q 556 1106 635 1106 q 347 1063 444 1106 q 176 944 249 1021 q 60 764 103 868 q 17 536 17 660 z "},"|":{"ha":157,"x_min":22,"x_max":133,"o":"m 22 999 q 40 1047 22 1025 q 78 1069 57 1069 q 116 1047 99 1069 q 133 999 133 1025 q 116 950 133 972 q 78 928 99 928 q 40 950 57 928 q 22 999 22 972 m 22 840 l 133 840 l 133 0 l 22 0 l 22 840 z "},"}":{"ha":1111,"x_min":17,"x_max":1094,"o":"m 539 468 l 958 468 q 913 326 949 393 q 824 207 878 258 q 700 126 769 156 q 554 96 631 96 q 394 131 468 96 q 265 225 319 165 q 178 365 210 285 q 146 538 146 446 q 178 709 146 629 q 265 847 210 789 q 394 940 319 906 q 554 974 468 974 q 674 953 617 974 q 780 899 732 933 q 865 816 828 864 q 926 713 903 768 l 1042 782 q 960 913 1010 854 q 847 1015 910 972 q 709 1082 783 1058 q 556 1106 635 1106 q 347 1063 444 1106 q 176 944 249 1021 q 60 764 103 868 q 17 536 17 660 q 59 315 17 418 q 174 134 101 211 q 346 13 247 57 q 556 -32 444 -32 q 769 15 671 -32 q 940 139 868 61 q 1053 320 1013 217 q 1094 538 1094 424 l 1094 567 l 539 567 l 539 468 z "},"~":{"ha":1111,"x_min":17,"x_max":1094,"o":"m 17 536 q 59 315 17 418 q 174 134 101 211 q 346 13 247 57 q 556 -32 444 -32 q 705 -10 635 -32 q 838 53 775 13 l 989 -111 l 1085 -22 l 939 138 q 1053 318 1011 217 q 1094 538 1094 419 q 1052 759 1094 656 q 937 940 1010 863 q 765 1061 864 1017 q 556 1106 667 1106 q 347 1063 444 1106 q 176 944 249 1021 q 60 764 103 868 q 17 536 17 660 m 525 393 l 746 153 q 655 113 703 129 q 554 97 607 97 q 394 132 468 97 q 265 226 319 167 q 178 365 210 285 q 146 538 146 446 q 178 709 146 629 q 265 847 210 789 q 394 940 319 906 q 554 974 468 974 q 714 940 639 974 q 845 847 789 906 q 933 709 901 789 q 965 538 965 629 q 933 372 965 449 q 849 236 900 294 l 622 483 l 525 393 z "},"":{"ha":153,"x_min":0,"x_max":0,"o":""},"€":{"ha":286,"x_min":22,"x_max":263,"o":"m 22 850 l 22 751 l 64 751 l 64 700 l 22 700 l 22 601 l 64 601 l 64 106 q 76 56 64 76 q 106 24 88 36 q 147 6 125 11 q 190 0 169 0 l 263 0 l 263 99 l 192 99 q 175 125 175 100 l 175 601 l 228 601 l 228 700 l 175 700 l 175 751 l 228 751 l 228 850 l 175 850 l 175 942 q 192 968 175 965 l 263 968 l 263 1067 l 190 1067 q 147 1061 169 1067 q 106 1043 125 1056 q 76 1010 88 1031 q 64 961 64 990 l 64 850 l 22 850 z "},"‚":{"ha":146,"x_min":17,"x_max":128,"o":"m 17 68 q 34 117 17 94 q 72 139 51 139 q 110 117 93 139 q 128 68 128 94 q 123 35 128 56 q 109 -8 118 14 q 88 -48 100 -29 q 60 -75 75 -67 l 44 -75 q 57 -33 53 -51 q 64 -3 61 -14 q 31 21 46 0 q 17 68 17 42 z "},"ƒ":{"ha":303,"x_min":22,"x_max":279,"o":"m 279 965 q 267 1013 279 993 q 235 1046 254 1033 q 194 1064 217 1058 q 150 1069 171 1069 q 108 1064 131 1069 q 66 1046 85 1058 q 35 1013 47 1033 q 22 964 22 993 l 22 103 q 34 53 22 74 q 65 21 46 33 q 106 3 83 8 q 149 -3 128 -3 q 192 3 169 -3 q 235 21 215 8 q 267 53 254 33 q 279 101 279 74 l 279 601 l 168 601 l 168 119 q 150 92 168 92 q 139 101 144 93 q 133 119 133 108 l 133 678 l 279 678 l 279 965 m 168 775 l 133 775 l 133 947 q 150 975 133 972 q 162 968 156 975 q 168 947 168 961 l 168 775 z "},"„":{"ha":283,"x_min":17,"x_max":267,"o":"m 17 68 q 34 117 17 94 q 72 139 51 139 q 110 117 93 139 q 128 68 128 94 q 123 35 128 56 q 109 -8 118 14 q 88 -48 100 -29 q 60 -75 75 -67 l 44 -75 q 57 -33 53 -51 q 64 -3 61 -14 q 31 21 46 0 q 17 68 17 42 m 156 68 q 173 117 156 94 q 211 139 190 139 q 249 117 232 139 q 267 68 267 94 q 262 35 267 56 q 247 -8 257 14 q 225 -48 238 -29 q 197 -75 213 -67 l 183 -75 q 195 -33 190 -51 q 201 -3 200 -14 q 169 21 183 0 q 156 68 156 42 z "},"…":{"ha":422,"x_min":17,"x_max":406,"o":"m 156 68 q 173 117 156 94 q 211 139 190 139 q 249 117 232 139 q 267 68 267 94 q 249 19 267 42 q 211 -3 232 -3 q 173 19 190 -3 q 156 68 156 42 m 294 68 q 312 117 294 94 q 350 139 329 139 q 388 117 371 139 q 406 68 406 94 q 388 19 406 42 q 350 -3 371 -3 q 312 19 329 -3 q 294 68 294 42 m 17 68 q 34 117 17 94 q 72 139 51 139 q 110 117 93 139 q 128 68 128 94 q 110 19 128 42 q 72 -3 93 -3 q 34 19 51 -3 q 17 68 17 42 z "},"†":{"ha":263,"x_min":22,"x_max":239,"o":"m 22 751 l 75 751 l 75 0 l 186 0 l 186 751 l 239 751 l 239 850 l 186 850 l 186 1067 l 75 1067 l 75 850 l 22 850 l 22 751 z "},"‡":{"ha":263,"x_min":22,"x_max":239,"o":"m 22 751 l 75 751 l 75 700 l 22 700 l 22 601 l 75 601 l 75 0 l 186 0 l 186 601 l 239 601 l 239 700 l 186 700 l 186 751 l 239 751 l 239 850 l 186 850 l 186 1067 l 75 1067 l 75 850 l 22 850 l 22 751 z "},"ˆ":{"ha":269,"x_min":17,"x_max":251,"o":"m 157 1113 l 133 1172 l 111 1113 l 17 1113 l 67 1249 l 203 1249 l 251 1113 l 157 1113 z "},"‰":{"ha":935,"x_min":22,"x_max":911,"o":"m 369 0 l 369 569 q 382 617 369 597 q 414 650 394 638 q 456 668 433 663 q 500 674 479 674 q 543 668 521 674 q 584 650 565 663 q 615 617 603 638 q 626 568 626 597 l 626 1 q 615 -48 626 -28 q 584 -81 603 -68 q 543 -99 565 -93 q 500 -104 521 -104 q 456 -99 479 -104 q 414 -81 433 -93 q 382 -48 394 -68 q 369 0 369 -28 m 481 549 l 481 21 q 499 -7 481 -7 q 510 2 504 -6 q 515 21 515 10 l 515 549 q 510 567 515 560 q 499 576 504 575 q 481 549 481 576 m 22 879 l 22 1068 q 35 1116 22 1096 q 67 1149 47 1136 q 109 1167 86 1161 q 153 1172 132 1172 q 196 1167 174 1172 q 237 1149 218 1161 q 267 1116 256 1136 q 279 1067 279 1096 l 279 881 q 267 831 279 851 q 237 799 256 811 q 196 781 218 786 q 153 775 174 775 q 109 781 132 775 q 67 799 86 786 q 35 831 47 811 q 22 879 22 851 m 133 1047 l 133 900 q 140 879 133 886 q 151 872 146 872 q 168 900 168 874 l 168 1047 q 151 1075 168 1072 q 140 1068 146 1075 q 133 1047 133 1061 m 313 1067 l 424 1067 l 424 782 q 401 714 424 742 q 350 675 379 686 q 340 667 344 672 q 336 650 336 661 l 336 0 l 225 0 l 225 669 q 248 738 225 710 q 301 778 271 767 q 309 787 306 782 q 313 801 313 792 l 313 1067 m 656 0 l 656 569 q 668 617 656 597 q 700 650 681 638 q 742 668 719 663 q 785 674 764 674 q 828 668 806 674 q 869 650 850 663 q 899 617 888 638 q 911 568 911 597 l 911 1 q 899 -48 911 -28 q 869 -81 888 -68 q 828 -99 850 -93 q 785 -104 806 -104 q 742 -99 764 -104 q 700 -81 719 -93 q 668 -48 681 -68 q 656 0 656 -28 m 767 549 l 767 21 q 772 0 767 7 q 783 -7 778 -7 q 800 21 800 -6 l 800 549 q 783 576 800 574 q 772 569 778 576 q 767 549 767 563 z "},"Š":{"ha":244,"x_min":6,"x_max":239,"o":"m 100 1249 l 122 1189 l 144 1249 l 239 1249 l 190 1113 l 54 1113 l 6 1249 l 100 1249 m 133 801 q 137 787 133 792 q 144 778 140 782 q 199 738 175 767 q 222 669 222 710 l 222 106 q 210 56 222 76 q 178 24 197 36 q 138 6 160 11 q 94 0 115 0 l 22 0 l 22 99 l 94 99 q 106 107 100 100 q 111 125 111 114 l 111 650 q 107 667 111 661 q 96 675 103 672 q 44 714 67 686 q 22 782 22 742 l 22 961 q 34 1010 22 990 q 65 1043 46 1031 q 106 1061 83 1056 q 150 1067 129 1067 l 222 1067 l 222 968 l 150 968 q 139 960 144 967 q 133 942 133 953 l 133 801 z "},"‹":{"ha":154,"x_min":22,"x_max":132,"o":"m 132 753 l 83 724 l 132 696 l 132 578 l 22 639 l 22 810 l 132 871 l 132 753 z "},"Œ":{"ha":447,"x_min":22,"x_max":425,"o":"m 417 676 l 417 775 l 281 775 l 281 968 l 314 968 l 314 849 l 425 849 l 425 1067 l 150 1067 q 106 1061 129 1067 q 65 1043 83 1056 q 34 1010 46 1031 q 22 961 22 990 l 22 106 q 34 56 22 76 q 65 24 46 36 q 106 6 83 11 q 150 0 129 0 l 425 0 l 425 604 l 314 604 l 314 99 l 281 99 l 281 676 l 417 676 m 133 125 l 133 942 q 139 960 133 953 q 150 968 144 967 l 169 968 l 169 99 l 150 99 q 139 107 144 100 q 133 125 133 114 z "},"Ž":{"ha":300,"x_min":22,"x_max":278,"o":"m 128 1249 l 150 1189 l 172 1249 l 267 1249 l 218 1113 l 82 1113 l 33 1249 l 128 1249 m 22 0 l 22 650 l 167 850 l 167 968 l 133 968 l 133 849 l 22 849 l 22 1067 l 278 1067 l 278 806 l 133 603 l 133 99 l 167 99 l 167 604 l 278 604 l 278 0 l 22 0 z "},"‘":{"ha":151,"x_min":22,"x_max":128,"o":"m 22 1067 l 128 1067 l 128 779 l 22 779 l 22 1067 z "},"’":{"ha":151,"x_min":22,"x_max":128,"o":"m 22 1067 l 128 1067 l 128 779 l 22 779 l 22 1067 z "},"“":{"ha":297,"x_min":22,"x_max":275,"o":"m 22 1067 l 128 1067 l 128 779 l 22 779 l 22 1067 m 169 1067 l 275 1067 l 275 779 l 169 779 l 169 1067 z "},"”":{"ha":297,"x_min":22,"x_max":275,"o":"m 22 1067 l 128 1067 l 128 779 l 22 779 l 22 1067 m 169 1067 l 275 1067 l 275 779 l 169 779 l 169 1067 z "},"•":{"ha":146,"x_min":17,"x_max":128,"o":"m 17 728 q 34 776 17 754 q 72 799 51 799 q 110 776 93 799 q 128 728 128 754 q 110 679 128 701 q 72 657 93 657 q 34 679 51 657 q 17 728 17 701 z "},"–":{"ha":172,"x_min":22,"x_max":150,"o":"m 22 775 l 150 775 l 150 676 l 22 676 l 22 775 z "},"—":{"ha":232,"x_min":22,"x_max":210,"o":"m 22 775 l 210 775 l 210 676 l 22 676 l 22 775 z "},"˜":{"ha":235,"x_min":18,"x_max":267,"o":"m 165 1249 l 67 1249 l 18 1113 l 74 1113 l 96 1172 l 119 1113 l 217 1113 l 267 1249 l 211 1249 l 189 1189 l 165 1249 z "},"™":{"ha":303,"x_min":19,"x_max":279,"o":"m 61 885 l 90 885 l 90 1072 l 131 1072 l 131 1111 l 19 1111 l 19 1072 l 61 1072 l 61 885 m 143 885 l 168 885 l 168 1065 l 199 885 l 222 885 l 254 1065 l 254 885 l 279 885 l 279 1111 l 236 1111 l 211 954 l 185 1111 l 143 1111 l 143 885 z "},"š":{"ha":300,"x_min":22,"x_max":278,"o":"m 128 1249 l 150 1189 l 172 1249 l 267 1249 l 218 1113 l 82 1113 l 33 1249 l 128 1249 m 22 964 q 35 1012 22 992 q 67 1044 47 1032 q 108 1063 86 1057 q 151 1069 131 1069 q 194 1064 172 1069 q 235 1045 217 1058 q 266 1012 254 1032 q 278 963 278 992 l 278 849 l 167 849 l 167 946 q 150 974 167 971 q 139 967 144 974 q 133 946 133 960 l 133 850 q 170 790 146 817 q 218 737 194 764 q 260 677 242 710 q 278 597 278 644 l 278 103 q 265 53 278 74 q 234 21 253 33 q 193 3 215 8 q 150 -3 171 -3 q 107 3 129 -3 q 66 21 85 8 q 35 53 47 33 q 22 101 22 74 l 22 604 l 133 604 l 133 119 q 139 99 133 106 q 150 92 144 92 q 167 119 167 93 l 167 603 q 128 669 153 642 q 81 722 104 696 q 40 776 57 747 q 22 849 22 806 l 22 964 z "},"›":{"ha":154,"x_min":22,"x_max":132,"o":"m 22 753 l 71 724 l 22 696 l 22 578 l 132 639 l 132 810 l 22 871 l 22 753 z "},"œ":{"ha":390,"x_min":22,"x_max":367,"o":"m 22 965 l 22 101 q 35 54 22 74 q 67 23 47 35 q 109 6 86 11 q 153 0 132 0 l 367 0 l 367 99 l 279 99 l 279 676 l 361 676 l 361 775 l 279 775 l 279 968 l 367 968 l 367 1067 q 251 1067 292 1067 q 190 1068 211 1068 l 163 1068 l 153 1068 q 109 1063 132 1068 q 67 1044 86 1057 q 35 1013 47 1032 q 22 965 22 993 m 168 125 q 151 97 168 99 q 140 104 146 97 q 133 125 133 111 l 133 943 q 140 964 133 957 q 151 971 146 971 q 168 943 168 968 l 168 125 z "},"ž":{"ha":257,"x_min":11,"x_max":244,"o":"m 106 1249 l 128 1189 l 150 1249 l 244 1249 l 196 1113 l 60 1113 l 11 1249 l 106 1249 m 233 99 l 233 0 l 22 0 l 22 99 l 124 968 l 22 968 l 22 1067 l 233 1067 l 233 968 l 132 99 l 233 99 z "},"Ÿ":{"ha":303,"x_min":22,"x_max":279,"o":"m 161 1179 q 178 1131 161 1153 q 217 1108 196 1108 q 255 1131 238 1108 q 272 1179 272 1153 q 255 1228 272 1206 q 217 1250 238 1250 q 178 1228 196 1250 q 161 1179 161 1206 m 29 1179 q 47 1131 29 1153 q 85 1108 64 1108 q 123 1131 106 1108 q 140 1179 140 1153 q 123 1228 140 1206 q 85 1250 106 1250 q 47 1228 64 1250 q 29 1179 29 1206 m 22 779 q 44 719 22 742 q 94 685 65 696 l 94 0 l 206 0 l 206 683 q 257 717 235 694 q 279 781 279 740 l 279 1067 l 168 1067 l 168 800 q 151 772 168 774 q 140 779 146 772 q 133 800 133 786 l 133 1067 l 22 1067 l 22 779 z "}," ":{"ha":142,"x_min":0,"x_max":0,"o":""},"¡":{"ha":157,"x_min":22,"x_max":133,"o":"m 22 999 q 40 1047 22 1025 q 78 1069 57 1069 q 116 1047 99 1069 q 133 999 133 1025 q 116 950 133 972 q 78 928 99 928 q 40 950 57 928 q 22 999 22 972 m 22 840 l 133 840 l 133 0 l 22 0 l 22 840 z "},"¢":{"ha":300,"x_min":22,"x_max":278,"o":"m 190 0 l 190 150 q 251 182 224 157 q 278 251 278 207 l 278 475 l 167 475 l 167 271 q 150 243 167 244 q 139 250 144 243 q 133 271 133 257 l 133 864 q 139 885 133 878 q 150 892 144 892 q 167 864 167 889 l 167 678 l 278 678 l 278 883 q 251 952 278 928 q 190 985 224 976 l 190 1065 l 111 1065 l 111 983 q 50 951 78 975 q 22 885 22 928 l 22 250 q 50 182 22 206 q 111 150 78 158 l 111 0 l 190 0 z "},"£":{"ha":286,"x_min":22,"x_max":264,"o":"m 22 775 l 22 676 l 78 676 q 65 632 68 657 q 63 571 63 607 l 63 99 l 22 99 l 22 0 l 264 0 l 264 99 l 174 99 l 174 651 q 178 669 174 663 q 189 678 183 675 l 239 678 l 239 775 l 189 775 q 178 783 183 776 q 174 801 174 790 l 174 942 q 179 960 174 953 q 190 968 185 967 l 211 968 l 211 1067 l 189 1067 q 146 1061 168 1067 q 105 1043 124 1056 q 74 1010 86 1031 q 63 961 63 990 l 63 879 q 65 818 63 843 q 76 775 67 793 l 22 775 z "},"¤":{"ha":456,"x_min":17,"x_max":439,"o":"m 244 0 l 356 0 l 356 440 q 416 541 393 481 q 439 676 439 601 q 416 810 439 749 q 356 911 393 871 l 356 1067 l 244 1067 l 244 972 q 235 974 244 974 l 228 974 q 211 972 211 974 l 211 1065 l 100 1065 l 100 914 q 40 812 63 874 q 17 675 17 750 q 40 540 17 600 q 100 439 63 479 l 100 0 l 211 0 l 211 378 l 244 378 l 244 0 m 83 676 q 122 828 83 772 q 228 885 161 885 q 333 828 294 885 q 372 676 372 772 q 333 522 372 579 q 228 465 294 465 q 122 522 161 465 q 83 676 83 579 z "},"¥":{"ha":303,"x_min":22,"x_max":279,"o":"m 22 683 l 22 585 l 94 585 l 94 533 l 22 533 l 22 435 l 94 435 l 94 0 l 206 0 l 206 435 l 279 435 l 279 533 l 206 533 l 206 585 l 279 585 l 279 683 l 206 683 q 257 717 235 694 q 279 781 279 740 l 279 1067 l 168 1067 l 168 800 q 151 772 168 774 q 140 779 146 772 q 133 800 133 786 l 133 1067 l 22 1067 l 22 779 q 44 719 22 742 q 94 685 65 696 l 94 683 l 22 683 z "},"¦":{"ha":157,"x_min":22,"x_max":133,"o":"m 22 -128 l 133 -128 l 133 1193 l 22 1193 l 22 -128 z "},"§":{"ha":456,"x_min":17,"x_max":439,"o":"m 17 675 q 40 540 17 600 q 100 439 63 479 l 100 0 l 211 0 l 211 378 l 228 378 q 310 401 271 378 q 377 465 349 425 q 422 560 406 506 q 439 676 439 614 q 416 810 439 749 q 356 911 393 871 l 356 1067 l 244 1067 l 244 972 q 235 974 244 974 l 228 974 q 145 951 183 974 q 78 889 107 929 q 33 794 50 849 q 17 675 17 739 m 83 676 q 122 828 83 772 q 228 885 161 885 q 333 828 294 885 q 372 676 372 772 q 333 522 372 579 q 228 465 294 465 q 122 522 161 465 q 83 676 83 579 z "},"¨":{"ha":178,"x_min":-33,"x_max":211,"o":"m 100 1179 q 117 1131 100 1153 q 156 1108 135 1108 q 194 1131 176 1108 q 211 1179 211 1153 q 194 1228 211 1206 q 156 1250 176 1250 q 117 1228 135 1250 q 100 1179 100 1206 m -33 1179 q -16 1131 -33 1153 q 22 1108 1 1108 q 60 1131 43 1108 q 78 1179 78 1153 q 60 1228 78 1206 q 22 1250 43 1250 q -16 1228 1 1250 q -33 1179 -33 1206 z "},"©":{"ha":240,"x_min":17,"x_max":222,"o":"m 121 1114 q 99 1111 108 1114 q 75 1101 89 1108 l 72 1100 q 17 986 17 1057 q 33 924 17 950 q 50 897 42 907 q 74 872 58 886 q 121 860 96 860 q 142 863 136 860 q 167 874 147 865 l 174 881 q 194 900 188 892 q 208 924 201 908 q 222 986 222 950 q 219 1017 222 1001 q 207 1049 217 1033 l 208 1047 q 168 1097 197 1078 q 121 1114 147 1114 m 121 1085 l 124 1085 q 151 1076 138 1085 q 174 1055 164 1068 q 192 1026 185 1042 q 199 993 199 1010 l 199 986 q 187 940 199 964 q 160 903 175 915 l 160 904 q 124 890 138 890 q 108 892 118 890 q 82 904 97 894 l 82 903 q 57 933 64 913 q 43 986 43 960 q 54 1035 43 1010 l 53 1035 q 121 1085 74 1085 m 149 974 q 119 943 143 943 q 92 986 92 943 q 121 1033 92 1033 q 146 1007 140 1033 l 169 1014 q 121 1063 161 1063 q 65 986 65 1063 q 121 910 65 910 q 172 967 164 910 l 149 974 z "},"ª":{"ha":303,"x_min":22,"x_max":279,"o":"m 22 671 q 35 719 22 699 q 67 751 47 739 q 108 769 86 764 q 151 775 131 775 l 168 775 l 168 944 q 150 972 168 972 q 139 963 144 971 q 133 944 133 956 l 133 903 l 22 903 l 22 964 q 34 1013 22 993 q 65 1046 46 1033 q 106 1064 83 1058 q 150 1069 129 1069 q 193 1064 171 1069 q 235 1046 215 1058 q 267 1013 254 1033 q 279 965 279 993 l 279 0 l 150 0 q 106 5 129 0 q 65 22 83 10 q 34 54 46 35 q 22 103 22 74 l 22 671 m 133 651 l 133 125 q 140 106 133 114 q 151 99 146 99 l 168 99 l 168 651 q 153 678 168 678 q 140 670 146 678 q 133 651 133 663 z "},"«":{"ha":303,"x_min":22,"x_max":281,"o":"m 132 753 l 83 724 l 132 696 l 132 578 l 22 639 l 22 810 l 132 871 l 132 753 m 281 753 l 233 724 l 281 696 l 281 578 l 172 639 l 172 810 l 281 871 l 281 753 z "},"¬":{"ha":179,"x_min":22,"x_max":156,"o":"m 22 775 l 156 775 l 156 560 l 78 560 l 78 676 l 22 676 l 22 775 z "},"­":{"ha":136,"x_min":22,"x_max":114,"o":"m 22 775 l 114 775 l 114 676 l 22 676 l 22 775 z "},"®":{"ha":1060,"x_min":17,"x_max":1057,"o":"m 918 0 l 1057 0 l 1057 1067 l 918 1067 l 918 957 q 753 1067 846 1028 q 556 1106 660 1106 q 347 1063 444 1106 q 176 944 249 1021 q 60 764 103 868 q 17 536 17 660 q 59 315 17 418 q 174 134 101 211 q 346 13 247 57 q 556 -32 444 -32 q 753 7 660 -32 q 918 117 846 46 l 918 0 m 554 97 q 394 132 468 97 q 265 226 321 167 q 178 365 210 285 q 147 538 147 446 q 178 709 147 629 q 265 847 210 789 q 394 940 321 906 q 554 974 468 974 q 670 956 615 974 q 772 906 725 939 q 856 829 819 874 q 918 731 893 785 l 918 328 q 852 235 890 278 q 767 163 814 193 q 667 115 721 132 q 554 97 613 97 z "},"¯":{"ha":219,"x_min":22,"x_max":197,"o":"m 197 968 l 197 1067 l 22 1067 l 22 968 l 197 968 z "},"°":{"ha":47,"x_min":-33,"x_max":81,"o":"m 6 1179 q 11 1162 6 1169 q 24 1154 17 1154 q 38 1162 31 1154 q 44 1179 44 1169 q 38 1196 44 1188 q 24 1204 31 1204 q 11 1196 17 1204 q 6 1179 6 1188 m -33 1179 q -15 1228 -33 1206 q 24 1251 3 1251 q 63 1228 44 1251 q 81 1179 81 1206 q 63 1130 81 1153 q 24 1107 44 1107 q -15 1130 3 1107 q -33 1179 -33 1153 z "},"±":{"ha":232,"x_min":22,"x_max":210,"o":"m 22 775 l 78 775 l 78 890 l 156 890 l 156 775 l 210 775 l 210 676 l 156 676 l 156 560 l 78 560 l 78 676 l 22 676 l 22 775 m 22 497 l 210 497 l 210 399 l 22 399 l 22 497 z "},"²":{"ha":300,"x_min":22,"x_max":278,"o":"m 278 1068 l 278 1044 q 260 971 278 1001 q 219 913 243 940 q 172 858 196 886 q 133 790 147 829 l 133 647 l 167 647 l 167 792 l 278 792 l 278 549 l 22 549 l 22 776 q 40 858 22 824 q 82 921 58 892 q 130 977 106 950 q 167 1038 154 1004 l 167 1050 q 161 1071 167 1064 q 150 1078 156 1078 q 133 1050 133 1075 l 133 1022 l 22 1022 l 22 1067 q 34 1116 22 1096 q 65 1149 46 1136 q 106 1168 83 1163 q 149 1174 128 1174 q 192 1167 169 1174 q 233 1149 214 1161 q 265 1116 253 1136 q 278 1068 278 1096 z "},"³":{"ha":301,"x_min":22,"x_max":278,"o":"m 154 864 q 167 839 167 857 l 167 676 q 151 650 167 653 l 150 650 q 139 658 144 651 q 133 676 133 665 l 133 806 l 22 806 l 22 658 q 34 608 22 629 q 65 575 46 588 q 106 556 83 563 q 150 550 129 550 l 151 550 q 194 556 172 550 q 235 575 217 563 q 266 608 254 588 q 278 658 278 629 l 278 758 q 276 815 278 792 q 267 857 274 839 q 248 888 260 875 q 217 913 236 901 q 248 936 236 925 q 267 962 260 947 q 276 998 274 976 q 278 1053 278 1019 l 278 1064 q 266 1114 278 1093 q 235 1147 254 1135 q 194 1166 217 1160 q 151 1172 172 1172 l 150 1172 q 106 1166 129 1172 q 65 1147 83 1160 q 34 1114 46 1135 q 22 1064 22 1093 l 22 1022 l 133 1022 l 133 1046 q 139 1064 133 1057 q 150 1072 144 1071 l 151 1072 q 167 1046 167 1069 l 167 989 q 154 963 167 964 l 31 963 l 31 864 l 154 864 z "},"´":{"ha":131,"x_min":18,"x_max":165,"o":"m 67 1249 l 165 1249 l 114 1113 l 18 1113 l 67 1249 z "},"µ":{"ha":303,"x_min":22,"x_max":279,"o":"m 22 0 l 153 0 q 196 6 174 0 q 237 24 218 11 q 267 56 256 36 q 279 106 279 76 l 279 1067 l 168 1067 l 168 125 q 151 99 168 100 l 133 99 l 133 1067 l 22 1067 l 22 0 z "},"¶":{"ha":383,"x_min":22,"x_max":361,"o":"m 250 -128 l 361 -128 l 361 1067 l 150 1067 q 106 1061 129 1067 q 65 1043 83 1056 q 34 1010 46 1031 q 22 961 22 990 l 22 783 q 49 715 22 739 q 107 683 75 692 l 107 -128 l 218 -128 l 218 968 l 250 968 l 250 -128 z "},"·":{"ha":146,"x_min":17,"x_max":128,"o":"m 17 728 q 34 776 17 754 q 72 799 51 799 q 110 776 93 799 q 128 728 128 754 q 110 679 128 701 q 72 657 93 657 q 34 679 51 657 q 17 728 17 701 z "},"¸":{"ha":125,"x_min":-22,"x_max":101,"o":"m -22 -44 l -22 -143 l 101 -143 l 101 8 l 22 8 l 22 -44 l -22 -44 z "},"¹":{"ha":208,"x_min":19,"x_max":185,"o":"m 185 553 l 185 1169 l 19 1169 l 19 1071 l 74 1071 l 74 553 l 185 553 z "},"º":{"ha":303,"x_min":22,"x_max":279,"o":"m 22 656 l 22 1068 q 35 1116 22 1096 q 67 1149 47 1136 q 109 1167 86 1161 q 153 1172 132 1172 q 196 1167 174 1172 q 237 1149 218 1161 q 267 1116 256 1136 q 279 1067 279 1096 l 279 657 q 267 608 279 628 q 237 575 256 588 q 196 557 218 563 q 153 551 174 551 q 109 557 132 551 q 67 575 86 563 q 35 608 47 588 q 22 656 22 628 m 133 1047 l 133 676 q 140 656 133 663 q 151 649 146 649 q 168 676 168 650 l 168 1047 q 151 1075 168 1072 q 140 1068 146 1075 q 133 1047 133 1061 z "},"»":{"ha":303,"x_min":22,"x_max":281,"o":"m 172 753 l 219 724 l 172 696 l 172 578 l 281 639 l 281 810 l 172 871 l 172 753 m 22 753 l 71 724 l 22 696 l 22 578 l 132 639 l 132 810 l 22 871 l 22 753 z "},"¼":{"ha":603,"x_min":19,"x_max":579,"o":"m 242 801 q 238 787 242 792 q 231 778 235 782 q 177 738 200 767 q 154 669 154 710 l 154 0 l 265 0 l 265 650 q 269 667 265 661 q 279 675 274 672 q 331 714 308 686 q 353 782 353 742 l 353 1067 l 242 1067 l 242 801 m 322 671 l 322 281 l 468 281 l 468 -86 l 579 -86 l 579 671 l 468 671 l 468 379 l 433 379 l 433 671 l 322 671 m 185 778 l 185 1169 l 19 1169 l 19 1071 l 74 1071 l 74 778 l 185 778 z "},"½":{"ha":575,"x_min":19,"x_max":551,"o":"m 74 778 l 74 1071 l 19 1071 l 19 1169 l 185 1169 l 185 778 l 74 778 m 240 1067 l 351 1067 l 351 782 q 329 714 351 742 q 278 675 307 686 q 268 667 272 672 q 264 650 264 661 l 264 0 l 153 0 l 153 669 q 176 738 153 710 q 229 778 199 767 q 237 787 233 782 q 240 801 240 792 l 240 1067 m 551 569 l 551 507 q 534 433 551 464 q 493 376 517 403 q 446 320 469 349 q 408 253 422 292 l 408 -3 l 440 -3 l 440 254 l 551 254 l 551 -101 l 297 -101 l 297 239 q 315 320 297 286 q 356 383 332 354 q 404 440 381 413 q 440 500 428 467 l 440 551 q 424 579 440 579 q 413 570 418 578 q 408 551 408 563 l 408 485 l 297 485 l 297 568 q 309 617 297 597 q 340 651 321 638 q 381 669 358 664 q 422 675 403 675 q 466 669 443 675 q 508 650 489 663 q 539 617 526 638 q 551 569 551 597 z "},"¾":{"ha":672,"x_min":22,"x_max":650,"o":"m 311 801 q 308 787 311 792 q 300 778 304 782 q 247 738 271 767 q 224 669 224 710 l 224 0 l 335 0 l 335 650 q 339 667 335 661 q 350 675 343 672 q 401 714 379 686 q 422 782 422 742 l 422 1067 l 311 1067 l 311 801 m 393 671 l 393 281 l 539 281 l 539 -86 l 650 -86 l 650 671 l 539 671 l 539 379 l 504 379 l 504 671 l 393 671 m 154 939 q 167 914 167 932 l 167 901 q 151 875 167 878 l 150 875 q 139 883 144 876 q 133 901 133 890 l 22 901 l 22 883 q 34 833 22 854 q 65 800 46 813 q 106 781 83 788 q 150 775 129 775 l 151 775 q 194 781 172 775 q 235 800 217 788 q 266 833 254 813 q 278 883 278 854 l 278 894 q 271 931 278 918 q 238 968 264 943 q 272 1006 267 990 q 278 1053 278 1022 l 278 1064 q 266 1114 278 1093 q 235 1147 254 1135 q 194 1166 217 1160 q 151 1172 172 1172 l 150 1172 q 106 1166 129 1172 q 65 1147 83 1160 q 34 1114 46 1135 q 22 1064 22 1093 l 22 1046 l 133 1046 q 139 1064 133 1057 q 150 1072 144 1071 l 151 1072 q 167 1046 167 1069 l 167 1033 q 154 1007 167 1008 l 31 1007 l 31 939 l 154 939 z "},"¿":{"ha":300,"x_min":22,"x_max":278,"o":"m 22 103 q 35 55 22 75 q 67 22 47 35 q 108 3 86 10 q 151 -3 131 -3 q 194 3 172 -3 q 235 22 217 8 q 266 55 254 35 q 278 104 278 75 l 278 218 l 167 218 l 167 121 q 150 93 167 94 q 139 100 144 93 q 133 121 133 107 l 133 219 q 167 280 146 253 q 208 336 188 307 q 244 399 229 365 q 258 481 258 433 l 258 839 l 147 839 l 147 461 q 113 394 133 422 q 72 338 92 365 q 37 281 51 311 q 22 207 22 250 l 22 103 m 257 999 q 240 1047 257 1025 q 201 1069 222 1069 q 163 1047 181 1069 q 146 999 146 1025 q 163 950 146 972 q 201 928 181 928 q 240 950 222 928 q 257 999 257 972 z "},"À":{"ha":303,"x_min":22,"x_max":279,"o":"m 210 1113 l 114 1113 l 63 1249 l 161 1249 l 210 1113 m 279 0 l 168 0 l 168 676 l 133 676 l 133 0 l 22 0 l 22 961 q 34 1010 22 990 q 65 1043 46 1031 q 106 1061 83 1056 q 150 1067 129 1067 l 279 1067 l 279 0 m 168 968 l 150 968 q 139 960 144 967 q 133 942 133 953 l 133 775 l 168 775 l 168 968 z "},"Á":{"ha":303,"x_min":22,"x_max":279,"o":"m 142 1249 l 239 1249 l 189 1113 l 93 1113 l 142 1249 m 279 0 l 168 0 l 168 676 l 133 676 l 133 0 l 22 0 l 22 961 q 34 1010 22 990 q 65 1043 46 1031 q 106 1061 83 1056 q 150 1067 129 1067 l 279 1067 l 279 0 m 168 968 l 150 968 q 139 960 144 967 q 133 942 133 953 l 133 775 l 168 775 l 168 968 z "},"Â":{"ha":303,"x_min":22,"x_max":279,"o":"m 174 1113 l 150 1172 l 128 1113 l 33 1113 l 83 1249 l 219 1249 l 268 1113 l 174 1113 m 279 0 l 168 0 l 168 676 l 133 676 l 133 0 l 22 0 l 22 961 q 34 1010 22 990 q 65 1043 46 1031 q 106 1061 83 1056 q 150 1067 129 1067 l 279 1067 l 279 0 m 168 968 l 150 968 q 139 960 144 967 q 133 942 133 953 l 133 775 l 168 775 l 168 968 z "},"Ã":{"ha":303,"x_min":22,"x_max":279,"o":"m 197 1189 l 219 1249 l 275 1249 l 226 1113 l 128 1113 l 106 1172 l 83 1113 l 28 1113 l 76 1249 l 174 1249 l 197 1189 m 279 0 l 168 0 l 168 676 l 133 676 l 133 0 l 22 0 l 22 961 q 34 1010 22 990 q 65 1043 46 1031 q 106 1061 83 1056 q 150 1067 129 1067 l 279 1067 l 279 0 m 168 968 l 150 968 q 139 960 144 967 q 133 942 133 953 l 133 775 l 168 775 l 168 968 z "},"Ä":{"ha":303,"x_min":22,"x_max":279,"o":"m 29 1179 q 47 1228 29 1206 q 85 1250 64 1250 q 123 1228 106 1250 q 140 1179 140 1206 q 123 1131 140 1153 q 85 1108 106 1108 q 47 1131 64 1108 q 29 1179 29 1153 m 161 1179 q 178 1228 161 1206 q 217 1250 196 1250 q 255 1228 238 1250 q 272 1179 272 1206 q 255 1131 272 1153 q 217 1108 238 1108 q 178 1131 196 1108 q 161 1179 161 1153 m 279 0 l 168 0 l 168 676 l 133 676 l 133 0 l 22 0 l 22 961 q 34 1010 22 990 q 65 1043 46 1031 q 106 1061 83 1056 q 150 1067 129 1067 l 279 1067 l 279 0 m 168 968 l 150 968 q 139 960 144 967 q 133 942 133 953 l 133 775 l 168 775 l 168 968 z "},"Å":{"ha":303,"x_min":22,"x_max":279,"o":"m 168 775 l 133 775 l 133 942 q 139 960 133 953 q 150 968 144 967 l 168 968 l 168 775 m 279 1067 l 150 1067 q 106 1061 129 1067 q 65 1043 83 1056 q 34 1010 46 1031 q 22 961 22 990 l 22 0 l 133 0 l 133 676 l 168 676 l 168 0 l 279 0 l 279 1067 m 94 1179 q 112 1130 94 1153 q 150 1107 129 1107 q 189 1130 171 1107 q 207 1179 207 1153 q 189 1228 207 1206 q 150 1251 171 1251 q 112 1228 129 1251 q 94 1179 94 1206 m 132 1179 q 138 1196 132 1188 q 150 1204 143 1204 q 164 1196 157 1204 q 171 1179 171 1188 q 164 1162 171 1169 q 150 1154 157 1154 q 138 1162 143 1154 q 132 1179 132 1169 z "},"Æ":{"ha":447,"x_min":22,"x_max":425,"o":"m 417 676 l 417 775 l 281 775 l 281 968 l 314 968 l 314 849 l 425 849 l 425 1067 l 150 1067 q 106 1061 129 1067 q 65 1043 83 1056 q 34 1010 46 1031 q 22 961 22 990 l 22 0 l 133 0 l 133 676 l 168 676 l 168 0 l 425 0 l 425 604 l 314 604 l 314 99 l 281 99 l 281 676 l 417 676 m 168 775 l 133 775 l 133 942 q 139 960 133 953 q 150 968 144 967 l 168 968 l 168 775 z "},"Ç":{"ha":244,"x_min":22,"x_max":222,"o":"m 51 -44 l 51 -143 l 176 -143 l 176 0 l 222 0 l 222 99 l 150 99 q 139 107 144 100 q 133 125 133 114 l 133 942 q 139 960 133 953 q 150 968 144 967 l 222 968 l 222 1067 l 150 1067 q 106 1061 129 1067 q 65 1043 83 1056 q 34 1010 46 1031 q 22 961 22 990 l 22 106 q 44 42 22 65 q 97 8 67 18 l 97 -44 l 51 -44 z "},"È":{"ha":303,"x_min":22,"x_max":278,"o":"m 161 1249 l 63 1249 l 114 1113 l 210 1113 l 161 1249 m 271 676 l 271 775 l 133 775 l 133 968 l 167 968 l 167 849 l 278 849 l 278 1067 l 22 1067 l 22 0 l 278 0 l 278 604 l 167 604 l 167 99 l 133 99 l 133 676 l 271 676 z "},"É":{"ha":303,"x_min":22,"x_max":278,"o":"m 93 1113 l 189 1113 l 239 1249 l 142 1249 l 93 1113 m 271 676 l 271 775 l 133 775 l 133 968 l 167 968 l 167 849 l 278 849 l 278 1067 l 22 1067 l 22 0 l 278 0 l 278 604 l 167 604 l 167 99 l 133 99 l 133 676 l 271 676 z "},"Ê":{"ha":303,"x_min":22,"x_max":278,"o":"m 268 1113 l 219 1249 l 83 1249 l 33 1113 l 128 1113 l 150 1172 l 174 1113 l 268 1113 m 271 676 l 271 775 l 133 775 l 133 968 l 167 968 l 167 849 l 278 849 l 278 1067 l 22 1067 l 22 0 l 278 0 l 278 604 l 167 604 l 167 99 l 133 99 l 133 676 l 271 676 z "},"Ë":{"ha":303,"x_min":22,"x_max":278,"o":"m 161 1179 q 178 1131 161 1153 q 217 1108 196 1108 q 255 1131 238 1108 q 272 1179 272 1153 q 255 1228 272 1206 q 217 1250 238 1250 q 178 1228 196 1250 q 161 1179 161 1206 m 29 1179 q 47 1131 29 1153 q 85 1108 64 1108 q 123 1131 106 1108 q 140 1179 140 1153 q 123 1228 140 1206 q 85 1250 106 1250 q 47 1228 64 1250 q 29 1179 29 1206 m 271 676 l 271 775 l 133 775 l 133 968 l 167 968 l 167 849 l 278 849 l 278 1067 l 22 1067 l 22 0 l 278 0 l 278 604 l 167 604 l 167 99 l 133 99 l 133 676 l 271 676 z "},"Ì":{"ha":258,"x_min":22,"x_max":236,"o":"m 188 1113 l 92 1113 l 40 1249 l 139 1249 l 188 1113 m 236 99 l 236 0 l 22 0 l 22 99 l 74 99 l 74 968 l 22 968 l 22 1067 l 236 1067 l 236 968 l 185 968 l 185 99 l 236 99 z "},"Í":{"ha":258,"x_min":22,"x_max":236,"o":"m 74 99 l 74 968 l 22 968 l 22 1067 l 236 1067 l 236 968 l 185 968 l 185 99 l 236 99 l 236 0 l 22 0 l 22 99 l 74 99 m 121 1249 l 218 1249 l 167 1113 l 72 1113 l 121 1249 z "},"Î":{"ha":258,"x_min":11,"x_max":246,"o":"m 151 1113 l 128 1172 l 106 1113 l 11 1113 l 61 1249 l 197 1249 l 246 1113 l 151 1113 m 236 99 l 236 0 l 22 0 l 22 99 l 74 99 l 74 968 l 22 968 l 22 1067 l 236 1067 l 236 968 l 185 968 l 185 99 l 236 99 z "},"Ï":{"ha":258,"x_min":7,"x_max":250,"o":"m 139 1179 q 156 1131 139 1153 q 194 1108 174 1108 q 233 1131 215 1108 q 250 1179 250 1153 q 233 1228 250 1206 q 194 1250 215 1250 q 156 1228 174 1250 q 139 1179 139 1206 m 7 1179 q 24 1131 7 1153 q 63 1108 42 1108 q 101 1131 83 1108 q 118 1179 118 1153 q 101 1228 118 1206 q 63 1250 83 1250 q 24 1228 42 1250 q 7 1179 7 1206 m 185 99 l 185 968 l 236 968 l 236 1067 l 22 1067 l 22 968 l 74 968 l 74 99 l 22 99 l 22 0 l 236 0 l 236 99 l 185 99 z "},"Ð":{"ha":322,"x_min":22,"x_max":300,"o":"m 22 775 l 22 676 l 43 676 l 43 0 l 172 0 q 215 6 193 0 q 256 24 238 11 q 288 56 275 36 q 300 106 300 76 l 300 961 q 288 1010 300 990 q 256 1043 275 1031 q 215 1061 238 1056 q 172 1067 193 1067 l 43 1067 l 43 775 l 22 775 m 151 968 l 172 968 q 183 960 178 967 q 189 942 189 953 l 189 125 q 183 107 189 114 q 172 99 178 100 l 151 99 l 151 676 l 171 676 l 171 775 l 151 775 l 151 968 z "},"Ñ":{"ha":303,"x_min":22,"x_max":279,"o":"m 197 1189 l 219 1249 l 275 1249 l 226 1113 l 128 1113 l 106 1172 l 83 1113 l 28 1113 l 76 1249 l 174 1249 l 197 1189 m 22 0 l 22 1067 l 153 1067 q 196 1061 174 1067 q 237 1043 218 1056 q 267 1010 256 1031 q 279 961 279 990 l 279 0 l 168 0 l 168 942 q 151 968 168 965 l 133 968 l 133 0 l 22 0 z "},"Ò":{"ha":303,"x_min":22,"x_max":279,"o":"m 210 1113 l 114 1113 l 63 1249 l 161 1249 l 210 1113 m 22 101 l 22 965 q 35 1013 22 993 q 67 1046 47 1033 q 109 1064 86 1058 q 153 1069 132 1069 q 196 1064 174 1069 q 237 1046 218 1058 q 267 1013 256 1033 q 279 964 279 993 l 279 103 q 267 53 279 74 q 237 21 256 33 q 196 3 218 8 q 153 -3 174 -3 q 109 3 132 -3 q 67 21 86 8 q 35 53 47 33 q 22 101 22 74 m 133 944 l 133 122 q 140 101 133 108 q 151 94 146 94 q 168 122 168 96 l 168 944 q 151 972 168 969 q 140 965 146 972 q 133 944 133 958 z "},"Ó":{"ha":303,"x_min":22,"x_max":279,"o":"m 142 1249 l 239 1249 l 189 1113 l 93 1113 l 142 1249 m 22 101 l 22 965 q 35 1013 22 993 q 67 1046 47 1033 q 109 1064 86 1058 q 153 1069 132 1069 q 196 1064 174 1069 q 237 1046 218 1058 q 267 1013 256 1033 q 279 964 279 993 l 279 103 q 267 53 279 74 q 237 21 256 33 q 196 3 218 8 q 153 -3 174 -3 q 109 3 132 -3 q 67 21 86 8 q 35 53 47 33 q 22 101 22 74 m 133 944 l 133 122 q 140 101 133 108 q 151 94 146 94 q 168 122 168 96 l 168 944 q 151 972 168 969 q 140 965 146 972 q 133 944 133 958 z "},"Ô":{"ha":303,"x_min":22,"x_max":279,"o":"m 174 1113 l 150 1172 l 128 1113 l 33 1113 l 83 1249 l 219 1249 l 268 1113 l 174 1113 m 22 101 l 22 965 q 35 1013 22 993 q 67 1046 47 1033 q 109 1064 86 1058 q 153 1069 132 1069 q 196 1064 174 1069 q 237 1046 218 1058 q 267 1013 256 1033 q 279 964 279 993 l 279 103 q 267 53 279 74 q 237 21 256 33 q 196 3 218 8 q 153 -3 174 -3 q 109 3 132 -3 q 67 21 86 8 q 35 53 47 33 q 22 101 22 74 m 133 944 l 133 122 q 140 101 133 108 q 151 94 146 94 q 168 122 168 96 l 168 944 q 151 972 168 969 q 140 965 146 972 q 133 944 133 958 z "},"Õ":{"ha":303,"x_min":22,"x_max":279,"o":"m 174 1249 l 76 1249 l 28 1113 l 83 1113 l 106 1172 l 128 1113 l 226 1113 l 275 1249 l 219 1249 l 197 1189 l 174 1249 m 22 101 q 35 53 22 74 q 67 21 47 33 q 109 3 86 8 q 153 -3 132 -3 q 196 3 174 -3 q 237 21 218 8 q 267 53 256 33 q 279 103 279 74 l 279 964 q 267 1013 279 993 q 237 1046 256 1033 q 196 1064 218 1058 q 153 1069 174 1069 q 109 1064 132 1069 q 67 1046 86 1058 q 35 1013 47 1033 q 22 965 22 993 l 22 101 m 133 944 q 140 965 133 958 q 151 972 146 972 q 168 944 168 969 l 168 122 q 151 94 168 96 q 140 101 146 94 q 133 122 133 108 l 133 944 z "},"Ö":{"ha":303,"x_min":22,"x_max":279,"o":"m 29 1179 q 47 1228 29 1206 q 85 1250 64 1250 q 123 1228 106 1250 q 140 1179 140 1206 q 123 1131 140 1153 q 85 1108 106 1108 q 47 1131 64 1108 q 29 1179 29 1153 m 161 1179 q 178 1228 161 1206 q 217 1250 196 1250 q 255 1228 238 1250 q 272 1179 272 1206 q 255 1131 272 1153 q 217 1108 238 1108 q 178 1131 196 1108 q 161 1179 161 1153 m 22 101 l 22 965 q 35 1013 22 993 q 67 1046 47 1033 q 109 1064 86 1058 q 153 1069 132 1069 q 196 1064 174 1069 q 237 1046 218 1058 q 267 1013 256 1033 q 279 964 279 993 l 279 103 q 267 53 279 74 q 237 21 256 33 q 196 3 218 8 q 153 -3 174 -3 q 109 3 132 -3 q 67 21 86 8 q 35 53 47 33 q 22 101 22 74 m 133 944 l 133 122 q 140 101 133 108 q 151 94 146 94 q 168 122 168 96 l 168 944 q 151 972 168 969 q 140 965 146 972 q 133 944 133 958 z "},"×":{"ha":243,"x_min":24,"x_max":219,"o":"m 81 847 l 122 794 l 164 847 l 219 776 l 178 725 l 219 674 l 164 603 l 122 656 l 81 603 l 24 672 l 67 725 l 24 778 l 81 847 z "},"Ø":{"ha":1111,"x_min":17,"x_max":1094,"o":"m 17 536 q 59 315 17 418 q 174 134 101 211 q 346 13 247 57 q 556 -32 444 -32 q 765 13 667 -32 q 937 134 864 57 q 1052 315 1010 211 q 1094 538 1094 418 q 1052 759 1094 656 q 937 940 1010 863 q 765 1061 864 1017 q 556 1106 667 1106 q 347 1063 444 1106 q 176 944 249 1021 q 60 764 103 868 q 17 536 17 660 m 967 538 q 934 365 967 446 q 846 226 901 285 q 715 132 790 167 q 554 97 639 97 q 458 111 503 97 q 372 147 413 125 l 849 836 q 933 702 900 778 q 967 538 967 626 m 147 538 q 178 709 147 629 q 265 847 210 789 q 394 940 321 906 q 554 974 468 974 q 650 959 604 974 q 739 922 696 944 l 263 235 q 179 369 211 293 q 147 538 147 446 z "},"Ù":{"ha":303,"x_min":22,"x_max":279,"o":"m 210 1113 l 114 1113 l 63 1249 l 161 1249 l 210 1113 m 279 0 l 150 0 q 106 6 129 0 q 65 24 83 11 q 34 56 46 36 q 22 106 22 76 l 22 1067 l 133 1067 l 133 125 q 139 107 133 114 q 150 99 144 100 l 168 99 l 168 1067 l 279 1067 l 279 0 z "},"Ú":{"ha":303,"x_min":22,"x_max":279,"o":"m 142 1249 l 239 1249 l 189 1113 l 93 1113 l 142 1249 m 279 0 l 150 0 q 106 6 129 0 q 65 24 83 11 q 34 56 46 36 q 22 106 22 76 l 22 1067 l 133 1067 l 133 125 q 139 107 133 114 q 150 99 144 100 l 168 99 l 168 1067 l 279 1067 l 279 0 z "},"Û":{"ha":303,"x_min":22,"x_max":279,"o":"m 174 1113 l 150 1172 l 128 1113 l 33 1113 l 83 1249 l 219 1249 l 268 1113 l 174 1113 m 279 0 l 150 0 q 106 6 129 0 q 65 24 83 11 q 34 56 46 36 q 22 106 22 76 l 22 1067 l 133 1067 l 133 125 q 139 107 133 114 q 150 99 144 100 l 168 99 l 168 1067 l 279 1067 l 279 0 z "},"Ü":{"ha":303,"x_min":22,"x_max":279,"o":"m 29 1179 q 47 1228 29 1206 q 85 1250 64 1250 q 123 1228 106 1250 q 140 1179 140 1206 q 123 1131 140 1153 q 85 1108 106 1108 q 47 1131 64 1108 q 29 1179 29 1153 m 161 1179 q 178 1228 161 1206 q 217 1250 196 1250 q 255 1228 238 1250 q 272 1179 272 1206 q 255 1131 272 1153 q 217 1108 238 1108 q 178 1131 196 1108 q 161 1179 161 1153 m 279 0 l 150 0 q 106 6 129 0 q 65 24 83 11 q 34 56 46 36 q 22 106 22 76 l 22 1067 l 133 1067 l 133 125 q 139 107 133 114 q 150 99 144 100 l 168 99 l 168 1067 l 279 1067 l 279 0 z "},"Ý":{"ha":303,"x_min":22,"x_max":279,"o":"m 93 1113 l 189 1113 l 239 1249 l 142 1249 l 93 1113 m 22 779 q 44 719 22 742 q 94 685 65 696 l 94 0 l 206 0 l 206 683 q 257 717 235 694 q 279 781 279 740 l 279 1067 l 168 1067 l 168 800 q 151 772 168 774 q 140 779 146 772 q 133 800 133 786 l 133 1067 l 22 1067 l 22 779 z "},"Þ":{"ha":303,"x_min":22,"x_max":279,"o":"m 22 0 l 133 0 l 133 524 l 153 524 q 196 529 174 524 q 237 547 218 535 q 267 580 256 560 q 279 629 279 600 l 279 807 q 267 856 279 836 q 237 889 256 876 q 196 907 218 901 q 153 913 174 913 l 133 913 l 133 1067 l 22 1067 l 22 0 m 133 814 l 151 814 q 168 788 168 811 l 168 647 q 151 621 168 622 l 133 621 l 133 814 z "},"ß":{"ha":303,"x_min":22,"x_max":281,"o":"m 153 1069 l 150 1069 q 107 1063 129 1069 q 66 1044 85 1057 q 35 1011 47 1032 q 22 961 22 990 l 22 -62 l 133 -62 l 133 943 q 140 961 133 954 q 151 969 146 968 l 153 969 q 171 943 171 968 l 171 801 q 156 775 171 778 l 156 676 q 167 668 163 674 q 171 651 171 663 l 171 125 q 156 99 171 101 l 156 0 q 199 6 176 0 q 239 24 221 11 q 269 56 257 36 q 281 106 281 76 l 281 571 q 278 628 281 604 q 269 669 276 651 q 251 701 263 688 q 219 725 239 714 q 251 751 239 738 q 269 781 263 764 q 278 822 276 799 q 281 879 281 846 l 281 961 q 268 1011 281 990 q 237 1044 256 1032 q 196 1063 218 1057 q 153 1069 174 1069 z "},"à":{"ha":303,"x_min":22,"x_max":279,"o":"m 210 1113 l 114 1113 l 63 1249 l 161 1249 l 210 1113 m 22 965 q 35 1013 22 993 q 67 1046 47 1033 q 109 1064 86 1058 q 153 1069 132 1069 q 196 1064 174 1069 q 237 1046 218 1058 q 267 1013 256 1033 q 279 964 279 993 l 279 0 l 168 0 l 168 676 l 133 676 l 133 0 l 22 0 l 22 965 m 133 944 l 133 775 l 168 775 l 168 944 q 151 972 168 969 q 140 965 146 972 q 133 944 133 958 z "},"á":{"ha":303,"x_min":22,"x_max":279,"o":"m 142 1249 l 239 1249 l 189 1113 l 93 1113 l 142 1249 m 22 965 q 35 1013 22 993 q 67 1046 47 1033 q 109 1064 86 1058 q 153 1069 132 1069 q 196 1064 174 1069 q 237 1046 218 1058 q 267 1013 256 1033 q 279 964 279 993 l 279 0 l 168 0 l 168 676 l 133 676 l 133 0 l 22 0 l 22 965 m 133 944 l 133 775 l 168 775 l 168 944 q 151 972 168 969 q 140 965 146 972 q 133 944 133 958 z "},"â":{"ha":303,"x_min":22,"x_max":279,"o":"m 174 1113 l 150 1172 l 128 1113 l 33 1113 l 83 1249 l 219 1249 l 268 1113 l 174 1113 m 22 965 q 35 1013 22 993 q 67 1046 47 1033 q 109 1064 86 1058 q 153 1069 132 1069 q 196 1064 174 1069 q 237 1046 218 1058 q 267 1013 256 1033 q 279 964 279 993 l 279 0 l 168 0 l 168 676 l 133 676 l 133 0 l 22 0 l 22 965 m 133 944 l 133 775 l 168 775 l 168 944 q 151 972 168 969 q 140 965 146 972 q 133 944 133 958 z "},"ã":{"ha":303,"x_min":22,"x_max":279,"o":"m 197 1189 l 219 1249 l 275 1249 l 226 1113 l 128 1113 l 106 1172 l 83 1113 l 28 1113 l 76 1249 l 174 1249 l 197 1189 m 22 965 q 35 1013 22 993 q 67 1046 47 1033 q 109 1064 86 1058 q 153 1069 132 1069 q 196 1064 174 1069 q 237 1046 218 1058 q 267 1013 256 1033 q 279 964 279 993 l 279 0 l 168 0 l 168 676 l 133 676 l 133 0 l 22 0 l 22 965 m 133 944 l 133 775 l 168 775 l 168 944 q 151 972 168 969 q 140 965 146 972 q 133 944 133 958 z "},"ä":{"ha":303,"x_min":22,"x_max":279,"o":"m 29 1179 q 47 1228 29 1206 q 85 1250 64 1250 q 123 1228 106 1250 q 140 1179 140 1206 q 123 1131 140 1153 q 85 1108 106 1108 q 47 1131 64 1108 q 29 1179 29 1153 m 161 1179 q 178 1228 161 1206 q 217 1250 196 1250 q 255 1228 238 1250 q 272 1179 272 1206 q 255 1131 272 1153 q 217 1108 238 1108 q 178 1131 196 1108 q 161 1179 161 1153 m 22 965 q 35 1013 22 993 q 67 1046 47 1033 q 109 1064 86 1058 q 153 1069 132 1069 q 196 1064 174 1069 q 237 1046 218 1058 q 267 1013 256 1033 q 279 964 279 993 l 279 0 l 168 0 l 168 676 l 133 676 l 133 0 l 22 0 l 22 965 m 133 944 l 133 775 l 168 775 l 168 944 q 151 972 168 969 q 140 965 146 972 q 133 944 133 958 z "},"å":{"ha":303,"x_min":22,"x_max":279,"o":"m 132 1179 q 138 1162 132 1169 q 150 1154 143 1154 q 164 1162 157 1154 q 171 1179 171 1169 q 164 1196 171 1188 q 150 1204 157 1204 q 138 1196 143 1204 q 132 1179 132 1188 m 94 1179 q 112 1228 94 1206 q 150 1251 129 1251 q 189 1228 171 1251 q 207 1179 207 1206 q 189 1130 207 1153 q 150 1107 171 1107 q 112 1130 129 1107 q 94 1179 94 1153 m 22 965 q 35 1013 22 993 q 67 1046 47 1033 q 109 1064 86 1058 q 153 1069 132 1069 q 196 1064 174 1069 q 237 1046 218 1058 q 267 1013 256 1033 q 279 964 279 993 l 279 0 l 168 0 l 168 676 l 133 676 l 133 0 l 22 0 l 22 965 m 133 944 l 133 775 l 168 775 l 168 944 q 151 972 168 969 q 140 965 146 972 q 133 944 133 958 z "},"æ":{"ha":390,"x_min":22,"x_max":367,"o":"m 367 0 l 367 99 l 279 99 l 279 676 l 361 676 l 361 775 l 279 775 l 279 968 l 367 968 l 367 1067 l 150 1067 q 106 1061 129 1067 q 65 1043 83 1056 q 34 1010 46 1031 q 22 961 22 990 l 22 0 l 133 0 l 133 676 l 168 676 l 168 0 l 367 0 m 168 968 l 168 775 l 133 775 l 133 942 q 139 960 133 953 q 150 968 144 967 l 168 968 z "},"ç":{"ha":303,"x_min":22,"x_max":279,"o":"m 79 -44 l 79 -143 l 204 -143 l 204 6 q 257 38 235 15 q 279 103 279 61 l 279 475 l 168 475 l 168 122 q 151 94 168 96 q 140 101 146 94 q 133 122 133 108 l 133 944 q 140 965 133 958 q 151 972 146 972 q 168 944 168 969 l 168 678 l 279 678 l 279 964 q 267 1013 279 993 q 237 1046 256 1033 q 196 1064 218 1058 q 153 1069 174 1069 q 109 1064 132 1069 q 67 1046 86 1058 q 35 1013 47 1033 q 22 965 22 993 l 22 101 q 55 29 22 53 q 125 0 88 6 l 125 -44 l 79 -44 z "},"è":{"ha":244,"x_min":22,"x_max":222,"o":"m 182 1113 l 86 1113 l 35 1249 l 133 1249 l 182 1113 m 22 0 l 22 1067 l 222 1067 l 222 968 l 133 968 l 133 775 l 215 775 l 215 676 l 133 676 l 133 99 l 222 99 l 222 0 l 22 0 z "},"é":{"ha":244,"x_min":22,"x_max":222,"o":"m 111 1249 l 208 1249 l 157 1113 l 61 1113 l 111 1249 m 22 0 l 22 1067 l 222 1067 l 222 968 l 133 968 l 133 775 l 215 775 l 215 676 l 133 676 l 133 99 l 222 99 l 222 0 l 22 0 z "},"ê":{"ha":244,"x_min":6,"x_max":239,"o":"m 144 1113 l 122 1172 l 100 1113 l 6 1113 l 54 1249 l 190 1249 l 239 1113 l 144 1113 m 22 0 l 22 1067 l 222 1067 l 222 968 l 133 968 l 133 775 l 215 775 l 215 676 l 133 676 l 133 99 l 222 99 l 222 0 l 22 0 z "},"ë":{"ha":244,"x_min":0,"x_max":244,"o":"m 133 1179 q 151 1131 133 1153 q 189 1108 168 1108 q 227 1131 210 1108 q 244 1179 244 1153 q 227 1228 244 1206 q 189 1250 210 1250 q 151 1228 168 1250 q 133 1179 133 1206 m 0 1179 q 17 1131 0 1153 q 56 1108 35 1108 q 94 1131 76 1108 q 111 1179 111 1153 q 94 1228 111 1206 q 56 1250 76 1250 q 17 1228 35 1250 q 0 1179 0 1206 m 222 0 l 222 99 l 133 99 l 133 676 l 215 676 l 215 775 l 133 775 l 133 968 l 222 968 l 222 1067 l 22 1067 l 22 0 l 222 0 z "},"ì":{"ha":157,"x_min":-8,"x_max":139,"o":"m 139 1113 l 43 1113 l -8 1249 l 89 1249 l 139 1113 m 22 1067 l 133 1067 l 133 0 l 22 0 l 22 1067 z "},"í":{"ha":157,"x_min":18,"x_max":165,"o":"m 67 1249 l 165 1249 l 114 1113 l 18 1113 l 67 1249 m 22 1067 l 133 1067 l 133 0 l 22 0 l 22 1067 z "},"î":{"ha":157,"x_min":-39,"x_max":196,"o":"m 101 1113 l 78 1172 l 56 1113 l -39 1113 l 11 1249 l 147 1249 l 196 1113 l 101 1113 m 22 1067 l 133 1067 l 133 0 l 22 0 l 22 1067 z "},"ï":{"ha":157,"x_min":-43,"x_max":200,"o":"m 89 1179 q 106 1131 89 1153 q 144 1108 124 1108 q 183 1131 165 1108 q 200 1179 200 1153 q 183 1228 200 1206 q 144 1250 165 1250 q 106 1228 124 1250 q 89 1179 89 1206 m -43 1179 q -26 1131 -43 1153 q 13 1108 -8 1108 q 51 1131 33 1108 q 68 1179 68 1153 q 51 1228 68 1206 q 13 1250 33 1250 q -26 1228 -8 1250 q -43 1179 -43 1206 m 22 0 l 133 0 l 133 1067 l 22 1067 l 22 0 z "},"ð":{"ha":303,"x_min":22,"x_max":279,"o":"m 279 101 l 279 965 q 251 1032 279 1008 q 190 1064 224 1056 l 190 1188 l 111 1188 l 111 1065 q 50 1033 78 1057 q 22 964 22 1008 l 22 903 l 133 903 l 133 944 q 139 963 133 956 q 150 972 144 971 q 168 944 168 972 l 168 775 l 151 775 q 108 769 131 775 q 67 751 86 764 q 35 719 47 739 q 22 671 22 699 l 22 103 q 34 53 22 74 q 65 21 46 33 q 106 3 83 8 q 150 -3 129 -3 q 193 3 171 -3 q 235 21 215 8 q 267 53 254 33 q 279 101 279 74 m 133 122 l 133 651 q 140 670 133 663 q 153 678 146 678 q 168 654 165 678 l 168 122 q 150 94 168 94 q 139 103 144 96 q 133 122 133 111 z "},"ñ":{"ha":303,"x_min":22,"x_max":279,"o":"m 174 1249 l 76 1249 l 28 1113 l 83 1113 l 106 1172 l 128 1113 l 226 1113 l 275 1249 l 219 1249 l 197 1189 l 174 1249 m 22 0 l 114 0 l 114 488 l 174 0 l 279 0 l 279 1067 l 189 1067 l 189 581 l 129 1067 l 22 1067 l 22 0 z "},"ò":{"ha":303,"x_min":22,"x_max":279,"o":"m 210 1113 l 114 1113 l 63 1249 l 161 1249 l 210 1113 m 22 101 l 22 965 q 35 1013 22 993 q 67 1046 47 1033 q 109 1064 86 1058 q 153 1069 132 1069 q 196 1064 174 1069 q 237 1046 218 1058 q 267 1013 256 1033 q 279 964 279 993 l 279 103 q 267 53 279 74 q 237 21 256 33 q 196 3 218 8 q 153 -3 174 -3 q 109 3 132 -3 q 67 21 86 8 q 35 53 47 33 q 22 101 22 74 m 133 944 l 133 122 q 140 101 133 108 q 151 94 146 94 q 168 122 168 96 l 168 944 q 151 972 168 969 q 140 965 146 972 q 133 944 133 958 z "},"ó":{"ha":303,"x_min":22,"x_max":279,"o":"m 142 1249 l 239 1249 l 189 1113 l 93 1113 l 142 1249 m 22 101 l 22 965 q 35 1013 22 993 q 67 1046 47 1033 q 109 1064 86 1058 q 153 1069 132 1069 q 196 1064 174 1069 q 237 1046 218 1058 q 267 1013 256 1033 q 279 964 279 993 l 279 103 q 267 53 279 74 q 237 21 256 33 q 196 3 218 8 q 153 -3 174 -3 q 109 3 132 -3 q 67 21 86 8 q 35 53 47 33 q 22 101 22 74 m 133 944 l 133 122 q 140 101 133 108 q 151 94 146 94 q 168 122 168 96 l 168 944 q 151 972 168 969 q 140 965 146 972 q 133 944 133 958 z "},"ô":{"ha":303,"x_min":22,"x_max":279,"o":"m 174 1113 l 150 1172 l 128 1113 l 33 1113 l 83 1249 l 219 1249 l 268 1113 l 174 1113 m 22 101 l 22 965 q 35 1013 22 993 q 67 1046 47 1033 q 109 1064 86 1058 q 153 1069 132 1069 q 196 1064 174 1069 q 237 1046 218 1058 q 267 1013 256 1033 q 279 964 279 993 l 279 103 q 267 53 279 74 q 237 21 256 33 q 196 3 218 8 q 153 -3 174 -3 q 109 3 132 -3 q 67 21 86 8 q 35 53 47 33 q 22 101 22 74 m 133 944 l 133 122 q 140 101 133 108 q 151 94 146 94 q 168 122 168 96 l 168 944 q 151 972 168 969 q 140 965 146 972 q 133 944 133 958 z "},"õ":{"ha":303,"x_min":22,"x_max":279,"o":"m 174 1249 l 76 1249 l 28 1113 l 83 1113 l 106 1172 l 128 1113 l 226 1113 l 275 1249 l 219 1249 l 197 1189 l 174 1249 m 22 101 q 35 53 22 74 q 67 21 47 33 q 109 3 86 8 q 153 -3 132 -3 q 196 3 174 -3 q 237 21 218 8 q 267 53 256 33 q 279 103 279 74 l 279 964 q 267 1013 279 993 q 237 1046 256 1033 q 196 1064 218 1058 q 153 1069 174 1069 q 109 1064 132 1069 q 67 1046 86 1058 q 35 1013 47 1033 q 22 965 22 993 l 22 101 m 133 944 q 140 965 133 958 q 151 972 146 972 q 168 944 168 969 l 168 122 q 151 94 168 96 q 140 101 146 94 q 133 122 133 108 l 133 944 z "},"ö":{"ha":303,"x_min":22,"x_max":279,"o":"m 29 1179 q 47 1228 29 1206 q 85 1250 64 1250 q 123 1228 106 1250 q 140 1179 140 1206 q 123 1131 140 1153 q 85 1108 106 1108 q 47 1131 64 1108 q 29 1179 29 1153 m 161 1179 q 178 1228 161 1206 q 217 1250 196 1250 q 255 1228 238 1250 q 272 1179 272 1206 q 255 1131 272 1153 q 217 1108 238 1108 q 178 1131 196 1108 q 161 1179 161 1153 m 22 101 l 22 965 q 35 1013 22 993 q 67 1046 47 1033 q 109 1064 86 1058 q 153 1069 132 1069 q 196 1064 174 1069 q 237 1046 218 1058 q 267 1013 256 1033 q 279 964 279 993 l 279 103 q 267 53 279 74 q 237 21 256 33 q 196 3 218 8 q 153 -3 174 -3 q 109 3 132 -3 q 67 21 86 8 q 35 53 47 33 q 22 101 22 74 m 133 944 l 133 122 q 140 101 133 108 q 151 94 146 94 q 168 122 168 96 l 168 944 q 151 972 168 969 q 140 965 146 972 q 133 944 133 958 z "},"÷":{"ha":254,"x_min":22,"x_max":232,"o":"m 72 565 q 90 613 72 592 q 128 635 107 635 q 165 613 149 635 q 182 565 182 592 q 165 517 182 539 q 128 496 149 496 q 90 517 107 496 q 72 565 72 539 m 72 886 q 90 934 72 913 q 128 956 107 956 q 165 934 149 956 q 182 886 182 913 q 165 838 182 860 q 128 817 149 817 q 90 838 107 817 q 72 886 72 860 m 22 775 l 232 775 l 232 676 l 22 676 l 22 775 z "},"ø":{"ha":1111,"x_min":17,"x_max":1094,"o":"m 17 536 q 59 315 17 418 q 174 134 101 211 q 346 13 247 57 q 556 -32 444 -32 q 765 13 667 -32 q 937 134 864 57 q 1052 315 1010 211 q 1094 538 1094 418 q 1052 759 1094 656 q 937 940 1010 863 q 765 1061 864 1017 q 556 1106 667 1106 q 347 1063 444 1106 q 176 944 249 1021 q 60 764 103 868 q 17 536 17 660 m 965 538 q 933 365 965 446 q 845 225 901 285 q 714 131 789 165 q 554 96 639 96 l 800 661 l 797 672 q 744 648 779 664 q 670 615 708 632 q 599 582 632 597 q 553 561 565 567 l 551 567 l 761 914 q 909 759 853 858 q 965 538 965 660 m 147 538 q 164 665 147 604 q 211 777 181 725 q 285 869 242 829 q 381 935 328 910 l 339 344 l 347 344 l 589 429 l 594 429 l 594 424 q 594 415 594 421 q 592 408 593 410 l 525 97 q 377 140 446 103 q 257 235 308 176 q 176 372 206 294 q 147 538 147 450 z "},"ù":{"ha":303,"x_min":22,"x_max":279,"o":"m 279 101 q 267 53 279 74 q 235 21 254 33 q 193 3 215 8 q 150 -3 171 -3 q 106 3 129 -3 q 65 21 83 8 q 34 53 46 33 q 22 103 22 74 l 22 1067 l 133 1067 l 133 122 q 139 103 133 111 q 150 94 144 96 q 168 122 168 94 l 168 1067 l 279 1067 l 279 101 m 210 1113 l 114 1113 l 63 1249 l 161 1249 l 210 1113 z "},"ú":{"ha":303,"x_min":22,"x_max":279,"o":"m 142 1249 l 239 1249 l 189 1113 l 93 1113 l 142 1249 m 22 101 l 22 1067 l 133 1067 l 133 122 q 140 101 133 108 q 151 94 146 94 q 168 122 168 96 l 168 1067 l 279 1067 l 279 103 q 267 53 279 74 q 237 21 256 33 q 196 3 218 8 q 153 -3 174 -3 q 109 3 132 -3 q 67 21 86 8 q 35 53 47 33 q 22 101 22 74 z "},"û":{"ha":303,"x_min":22,"x_max":279,"o":"m 22 1067 l 133 1067 l 133 122 q 140 101 133 108 q 151 94 146 94 q 168 122 168 96 l 168 1067 l 279 1067 l 279 103 q 267 53 279 74 q 237 21 256 33 q 196 3 218 8 q 153 -3 174 -3 q 109 3 132 -3 q 67 21 86 8 q 35 53 47 33 q 22 101 22 74 l 22 1067 m 174 1113 l 150 1172 l 128 1113 l 33 1113 l 83 1249 l 219 1249 l 268 1113 l 174 1113 z "},"ü":{"ha":303,"x_min":22,"x_max":279,"o":"m 29 1179 q 47 1228 29 1206 q 85 1250 64 1250 q 123 1228 106 1250 q 140 1179 140 1206 q 123 1131 140 1153 q 85 1108 106 1108 q 47 1131 64 1108 q 29 1179 29 1153 m 161 1179 q 178 1228 161 1206 q 217 1250 196 1250 q 255 1228 238 1250 q 272 1179 272 1206 q 255 1131 272 1153 q 217 1108 238 1108 q 178 1131 196 1108 q 161 1179 161 1153 m 22 101 l 22 1067 l 133 1067 l 133 122 q 140 101 133 108 q 151 94 146 94 q 168 122 168 96 l 168 1067 l 279 1067 l 279 103 q 267 53 279 74 q 237 21 256 33 q 196 3 218 8 q 153 -3 174 -3 q 109 3 132 -3 q 67 21 86 8 q 35 53 47 33 q 22 101 22 74 z "},"ý":{"ha":303,"x_min":22,"x_max":279,"o":"m 93 1113 l 189 1113 l 239 1249 l 142 1249 l 93 1113 m 168 775 l 150 775 q 139 783 144 776 q 133 801 133 790 l 133 1067 l 22 1067 l 22 783 q 34 734 22 754 q 65 701 46 714 q 106 683 83 689 q 150 678 129 678 l 168 678 l 168 119 q 151 92 168 93 q 140 99 146 92 q 133 119 133 106 l 133 601 l 22 601 l 22 101 q 35 53 22 74 q 68 21 49 33 q 110 3 88 8 q 154 -3 133 -3 q 196 3 174 -3 q 237 21 218 8 q 267 53 256 33 q 279 103 279 74 l 279 1067 l 168 1067 l 168 775 z "},"þ":{"ha":303,"x_min":22,"x_max":279,"o":"m 22 0 l 133 0 l 133 524 l 153 524 q 196 529 174 524 q 237 547 218 535 q 267 580 256 560 q 279 629 279 600 l 279 807 q 267 856 279 836 q 237 889 256 876 q 196 907 218 901 q 153 913 174 913 l 133 913 l 133 1067 l 22 1067 l 22 0 m 133 814 l 151 814 q 168 788 168 811 l 168 647 q 151 621 168 622 l 133 621 l 133 814 z "},"ÿ":{"ha":303,"x_min":22,"x_max":279,"o":"m 161 1179 q 178 1131 161 1153 q 217 1108 196 1108 q 255 1131 238 1108 q 272 1179 272 1153 q 255 1228 272 1206 q 217 1250 238 1250 q 178 1228 196 1250 q 161 1179 161 1206 m 29 1179 q 47 1131 29 1153 q 85 1108 64 1108 q 123 1131 106 1108 q 140 1179 140 1153 q 123 1228 140 1206 q 85 1250 106 1250 q 47 1228 64 1250 q 29 1179 29 1206 m 168 775 l 150 775 q 139 783 144 776 q 133 801 133 790 l 133 1067 l 22 1067 l 22 783 q 34 734 22 754 q 65 701 46 714 q 106 683 83 689 q 150 678 129 678 l 168 678 l 168 119 q 151 92 168 93 q 140 99 146 92 q 133 119 133 106 l 133 601 l 22 601 l 22 101 q 35 53 22 74 q 68 21 49 33 q 110 3 88 8 q 154 -3 133 -3 q 196 3 174 -3 q 237 21 218 8 q 267 53 256 33 q 279 103 279 74 l 279 1067 l 168 1067 l 168 775 z "}}}
